<?xml version="1.0" encoding="utf-8"?>
<!-- Generator: Adobe Illustrator 22.1.0, SVG Export Plug-In . SVG Version: 6.00 Build 0)  -->
<svg height="14px" width="14px" version="1.1" id="Capa_1" xmlns="http://www.w3.org/2000/svg" xmlns:xlink="http://www.w3.org/1999/xlink" x="0px" y="0px"
	 viewBox="0 0 36.4 36.4" style="enable-background:new 0 0 36.4 36.4;" xml:space="preserve">
<style type="text/css">
	.st0{fill:#C65651;}
</style>
<g>
	<g>
		<path class="st0" d="M30.2,3.9h-1.1V2.8c0-1.5-1.2-2.8-2.7-2.8c-1.5,0-2.7,1.2-2.7,2.8v1.2H21V2.8C21,1.2,19.8,0,18.4,0
			s-2.7,1.2-2.7,2.8v1.2H13V2.8C13,1.2,11.8,0,10.3,0S7.6,1.2,7.6,2.8v1.2H6.2C3.9,3.9,2,5.9,2,8.2v2h2.5H32h2.5v-2
			C34.5,5.9,32.6,3.9,30.2,3.9z M11.5,7.6c0,0.7-0.5,1.3-1.2,1.3S9.1,8.3,9.1,7.6V2.8c0-0.7,0.5-1.3,1.2-1.3s1.2,0.6,1.2,1.3V7.6z
			 M19.5,7.6c0,0.7-0.5,1.3-1.2,1.3s-1.2-0.6-1.2-1.3V2.8c0-0.7,0.5-1.3,1.2-1.3s1.2,0.6,1.2,1.3V7.6z M27.6,7.6
			c0,0.7-0.5,1.3-1.2,1.3c-0.6,0-1.2-0.6-1.2-1.3V2.8c0-0.7,0.5-1.3,1.2-1.3c0.6,0,1.2,0.6,1.2,1.3V7.6z"/>
		<path class="st0" d="M2,32.2c0,2.3,1.9,4.3,4.3,4.3h24c2.3,0,4.3-1.9,4.3-4.3V12.1H2C2,12.1,2,32.2,2,32.2z M30.2,32.3H6.3v-1.9
			h23.9V32.3z M30.2,27.6H6.3v-1.9h23.9V27.6z M19.8,21h10.4v1.9H19.8V21z M6.2,15h11.5v7.8H6.2V15z"/>
	</g>
</g>
</svg>
