<?xml version="1.0" encoding="utf-8"?>
<!-- Generator: Adobe Illustrator 22.1.0, SVG Export Plug-In . SVG Version: 6.00 Build 0)  -->
<svg version="1.1" id="Слой_1" xmlns="http://www.w3.org/2000/svg" xmlns:xlink="http://www.w3.org/1999/xlink" x="0px" y="0px"
	 viewBox="0 0 32 41" style="enable-background:new 0 0 32 41;" xml:space="preserve">
<style type="text/css">
	.st0{opacity:0.85;fill:#FFFFFF;}
</style>
<path class="st0" d="M16,20c-0.9,0-1.7-0.4-2.3-1L1,5.8C-0.3,4.5-0.3,2.3,1,1c0.6-0.6,1.4-1,2.3-1s1.7,0.4,2.3,1L16,11.9L26.5,1
	c0.6-0.6,1.4-1,2.3-1c0.9,0,1.7,0.4,2.3,1c0.6,0.6,1,1.5,1,2.4s-0.3,1.7-1,2.4L18.3,19C17.7,19.7,16.9,20,16,20L16,20z M3.2,1.5
	C2.8,1.5,2.3,1.7,2,2.1C1.3,2.8,1.3,4,2,4.7L14.7,18c0.7,0.7,1.8,0.7,2.5,0L30,4.7c0.3-0.4,0.5-0.8,0.5-1.3s-0.2-1-0.5-1.3
	c-0.7-0.7-1.9-0.7-2.6,0L16,14L4.5,2.1C4.2,1.7,3.7,1.5,3.2,1.5L3.2,1.5z"/>
<path class="st0" d="M16,41c-0.9,0-1.7-0.4-2.3-1L1,26.8c-1.3-1.3-1.3-3.5,0-4.8c0.6-0.6,1.4-1,2.3-1s1.7,0.4,2.3,1L16,32.8L26.5,22
	c0.6-0.6,1.4-1,2.3-1c0.9,0,1.7,0.4,2.3,1c0.6,0.6,1,1.5,1,2.4s-0.3,1.7-1,2.4L18.3,40C17.7,40.6,16.9,41,16,41L16,41z M3.2,22.5
	c-0.5,0-0.9,0.2-1.3,0.5c-0.7,0.7-0.7,1.9,0,2.7L14.7,39c0.7,0.7,1.8,0.7,2.5,0L30,25.7c0.3-0.4,0.5-0.8,0.5-1.3s-0.2-1-0.5-1.3
	c-0.7-0.7-1.9-0.7-2.6,0L16,35L4.5,23.1C4.2,22.7,3.7,22.5,3.2,22.5L3.2,22.5z"/>
</svg>
