<?xml version="1.0" encoding="utf-8"?>
<!-- Generator: Adobe Illustrator 22.1.0, SVG Export Plug-In . SVG Version: 6.00 Build 0)  -->
<svg version="1.1" id="Слой_1" xmlns="http://www.w3.org/2000/svg" xmlns:xlink="http://www.w3.org/1999/xlink" x="0px" y="0px"
	 viewBox="0 0 49 49" style="enable-background:new 0 0 49 49;" xml:space="preserve">
<style type="text/css">
	.st0{fill:#F2B54E;}
	.st1{opacity:0.3;}
	.st2{fill:#303838;}
	.st3{fill:#FFFFFF;}
</style>
<g>
	<circle class="st0" cx="24.5" cy="24.5" r="24.5"/>
	<g class="st1">
		<path class="st2" d="M12,25.5c-0.3-0.2-0.6-0.5-0.9-0.8c-1.7-1.7-2.6-3.8-2.6-6.2v-1.8H12v1.8c0,1.5,0.5,2.7,1.6,3.7
			c1,1,2.3,1.6,3.7,1.6c1.5,0,2.7-0.5,3.7-1.6c1-1,1.6-2.3,1.6-3.7v-1.8h3.5v1.8c0,2.4-0.9,4.5-2.6,6.2c-0.3,0.3-0.6,0.6-0.9,0.8
			c0.3,0.2,0.6,0.5,0.9,0.8c1.7,1.7,2.6,3.8,2.6,6.3v1.8h-3.5v-1.8c0-1.5-0.5-2.7-1.6-3.7c-1-1-2.3-1.6-3.7-1.6s-2.7,0.5-3.7,1.6
			c-1,1-1.6,2.3-1.6,3.7v1.8H8.4v-1.8c0-2.4,0.9-4.5,2.6-6.3C11.3,26,11.6,25.7,12,25.5z"/>
		<path class="st2" d="M40.5,32.6c-1.5,1.2-3.3,1.8-5.3,1.8c-2.4,0-4.5-0.9-6.3-2.6c-1.7-1.7-2.6-3.8-2.6-6.3s0.9-4.5,2.6-6.3
			c1.7-1.7,3.8-2.6,6.3-2.6s4.5,0.9,6.3,2.6s2.6,3.8,2.6,6.3v8.8h-3.5L40.5,32.6L40.5,32.6z M35.2,20.2c-1.5,0-2.7,0.5-3.7,1.6
			c-1,1-1.6,2.3-1.6,3.7s0.5,2.7,1.6,3.7c1,1,2.3,1.6,3.7,1.6c1.5,0,2.7-0.5,3.7-1.6c1-1,1.6-2.3,1.6-3.7c0-1.5-0.5-2.7-1.6-3.7
			C37.9,20.7,36.7,20.2,35.2,20.2z"/>
	</g>
	<g>
		<path class="st3" d="M11.2,24.5c-0.3-0.2-0.6-0.5-0.9-0.8c-1.7-1.7-2.6-3.8-2.6-6.2v-1.8h3.5v1.8c0,1.5,0.5,2.7,1.6,3.7
			c1,1,2.3,1.6,3.7,1.6c1.5,0,2.7-0.5,3.7-1.6c1-1,1.6-2.3,1.6-3.7v-1.8h3.5v1.8c0,2.4-0.9,4.5-2.6,6.2c-0.3,0.3-0.6,0.6-0.9,0.8
			c0.3,0.2,0.6,0.5,0.9,0.8c1.7,1.7,2.6,3.8,2.6,6.3v1.8h-3.5v-1.8c0-1.5-0.5-2.7-1.6-3.7c-1-1-2.3-1.6-3.7-1.6s-2.7,0.5-3.7,1.6
			c-1,1-1.6,2.3-1.6,3.7v1.8H7.7v-1.8c0-2.4,0.9-4.5,2.6-6.3C10.6,25,10.9,24.7,11.2,24.5z"/>
		<path class="st3" d="M39.8,31.6c-1.5,1.2-3.3,1.8-5.3,1.8c-2.4,0-4.5-0.9-6.3-2.6c-1.7-1.7-2.6-3.8-2.6-6.3s0.9-4.5,2.6-6.3
			c1.7-1.7,3.8-2.6,6.3-2.6s4.5,0.9,6.3,2.6s2.6,3.8,2.6,6.3v8.8h-3.5L39.8,31.6L39.8,31.6z M34.5,19.2c-1.5,0-2.7,0.5-3.7,1.6
			c-1,1-1.6,2.3-1.6,3.7s0.5,2.7,1.6,3.7c1,1,2.3,1.6,3.7,1.6c1.5,0,2.7-0.5,3.7-1.6c1-1,1.6-2.3,1.6-3.7c0-1.5-0.5-2.7-1.6-3.7
			S36,19.2,34.5,19.2z"/>
	</g>
</g>
</svg>
