<?xml version="1.0" encoding="utf-8"?>
<!-- Generator: Adobe Illustrator 17.0.0, SVG Export Plug-In . SVG Version: 6.00 Build 0)  -->
<!DOCTYPE svg PUBLIC "-//W3C//DTD SVG 1.1//EN" "http://www.w3.org/Graphics/SVG/1.1/DTD/svg11.dtd">
<svg version="1.1" id="Слой_1" xmlns="http://www.w3.org/2000/svg" xmlns:xlink="http://www.w3.org/1999/xlink" x="0px" y="0px"
	 width="262.818px" height="74.657px" viewBox="0 0 262.818 74.657" enable-background="new 0 0 262.818 74.657"
	 xml:space="preserve">
<g>
	<g>
		<g>
			<path fill="#666D71" d="M98.734,35.245h-0.8v-8.787h-5.359v8.787h-0.8v-9.47h6.959V35.245z"/>
			<path fill="#666D71" d="M108.164,31.025c0,0.663-0.086,1.262-0.26,1.797c-0.174,0.535-0.42,0.992-0.739,1.369
				c-0.318,0.377-0.705,0.669-1.16,0.875c-0.455,0.206-0.963,0.309-1.522,0.309c-0.555,0-1.06-0.103-1.512-0.309
				c-0.454-0.206-0.843-0.498-1.168-0.875c-0.325-0.377-0.577-0.834-0.754-1.369c-0.178-0.535-0.268-1.134-0.268-1.797v-1.015
				c0-0.663,0.089-1.263,0.268-1.802c0.177-0.537,0.426-0.995,0.748-1.375c0.32-0.378,0.708-0.671,1.16-0.877
				c0.454-0.206,0.957-0.309,1.512-0.309c0.56,0,1.066,0.103,1.522,0.309c0.455,0.206,0.845,0.498,1.168,0.877
				c0.323,0.38,0.571,0.839,0.745,1.375c0.174,0.538,0.26,1.139,0.26,1.802V31.025z M107.364,29.997c0-0.56-0.065-1.065-0.195-1.515
				c-0.129-0.451-0.318-0.834-0.565-1.148c-0.248-0.314-0.551-0.557-0.911-0.729c-0.36-0.171-0.768-0.257-1.223-0.257
				c-0.446,0-0.849,0.086-1.206,0.257c-0.357,0.172-0.662,0.415-0.911,0.729c-0.249,0.314-0.44,0.697-0.572,1.148
				s-0.198,0.955-0.198,1.515v1.028c0,0.563,0.068,1.071,0.202,1.522c0.135,0.451,0.328,0.834,0.58,1.151
				c0.251,0.317,0.555,0.558,0.912,0.728c0.358,0.169,0.76,0.254,1.208,0.254c0.458,0,0.868-0.085,1.225-0.254
				c0.358-0.169,0.66-0.411,0.905-0.728c0.245-0.317,0.431-0.7,0.558-1.151c0.129-0.451,0.192-0.959,0.192-1.522V29.997z"/>
			<path fill="#666D71" d="M110.981,31.388v3.857h-0.8v-9.47h3.225c0.522,0,0.98,0.071,1.375,0.209
				c0.397,0.138,0.731,0.332,0.999,0.582c0.269,0.249,0.472,0.548,0.609,0.894c0.135,0.348,0.205,0.729,0.205,1.145
				c0,0.438-0.069,0.829-0.205,1.174c-0.137,0.345-0.338,0.637-0.606,0.875c-0.266,0.238-0.598,0.42-0.997,0.546
				c-0.4,0.126-0.859,0.188-1.38,0.188H110.981z M110.981,30.713h2.425c0.422,0,0.783-0.054,1.086-0.16
				c0.305-0.106,0.551-0.254,0.742-0.442c0.191-0.189,0.332-0.411,0.423-0.668c0.091-0.255,0.137-0.531,0.137-0.825
				c0-0.291-0.046-0.568-0.137-0.829c-0.091-0.263-0.232-0.492-0.423-0.689c-0.191-0.198-0.437-0.354-0.742-0.469
				c-0.303-0.114-0.665-0.172-1.086-0.172h-2.425V30.713z"/>
			<path fill="#666D71" d="M124.806,26.458h-3.245v8.787h-0.8v-8.787h-3.239v-0.683h7.284V26.458z"/>
			<path fill="#666D71" d="M130.933,32.591h-4.299l-0.975,2.654h-0.839l3.583-9.47h0.76l3.585,9.47h-0.832L130.933,32.591z
				 M126.882,31.91h3.797l-1.899-5.159L126.882,31.91z"/>
			<path fill="#666D71" d="M141.189,25.775v9.47h-0.8v-8.787h-4l-0.175,3.597c-0.038,0.919-0.105,1.706-0.198,2.36
				c-0.092,0.655-0.238,1.192-0.435,1.609c-0.197,0.418-0.455,0.726-0.777,0.925c-0.322,0.197-0.725,0.295-1.209,0.295h-0.28v-0.677
				h0.248c0.32,0,0.591-0.071,0.809-0.214s0.4-0.388,0.543-0.732c0.143-0.345,0.254-0.806,0.332-1.385
				c0.077-0.578,0.135-1.306,0.175-2.182l0.208-4.28H141.189z"/>
			<path fill="#666D71" d="M157.078,31.025c0,0.663-0.086,1.262-0.26,1.797c-0.174,0.535-0.42,0.992-0.739,1.369
				s-0.705,0.669-1.16,0.875c-0.455,0.206-0.963,0.309-1.522,0.309c-0.555,0-1.06-0.103-1.512-0.309
				c-0.454-0.206-0.843-0.498-1.168-0.875c-0.325-0.377-0.577-0.834-0.754-1.369c-0.178-0.535-0.268-1.134-0.268-1.797v-1.015
				c0-0.663,0.089-1.263,0.268-1.802c0.177-0.537,0.426-0.995,0.748-1.375c0.32-0.378,0.708-0.671,1.16-0.877
				c0.454-0.206,0.957-0.309,1.512-0.309c0.56,0,1.066,0.103,1.522,0.309c0.455,0.206,0.845,0.498,1.168,0.877
				c0.323,0.38,0.571,0.839,0.745,1.375c0.174,0.538,0.26,1.139,0.26,1.802V31.025z M156.278,29.997c0-0.56-0.065-1.065-0.195-1.515
				c-0.129-0.451-0.318-0.834-0.565-1.148c-0.248-0.314-0.551-0.557-0.911-0.729c-0.36-0.171-0.768-0.257-1.223-0.257
				c-0.446,0-0.849,0.086-1.206,0.257c-0.357,0.172-0.662,0.415-0.911,0.729c-0.249,0.314-0.44,0.697-0.572,1.148
				c-0.132,0.451-0.198,0.955-0.198,1.515v1.028c0,0.563,0.068,1.071,0.202,1.522c0.135,0.451,0.328,0.834,0.58,1.151
				c0.251,0.317,0.555,0.558,0.912,0.728c0.358,0.169,0.76,0.254,1.208,0.254c0.458,0,0.868-0.085,1.225-0.254
				c0.358-0.169,0.66-0.411,0.905-0.728c0.245-0.317,0.431-0.7,0.558-1.151c0.129-0.451,0.192-0.959,0.192-1.522V29.997z"/>
			<path fill="#666D71" d="M172.588,35.245h-0.806v-4.539h-5.411v4.539h-0.8v-9.47h0.8v4.254h5.411v-4.254h0.806V35.245z"/>
			<path fill="#666D71" d="M180.222,30.706h-4.428v3.862h5.091v0.677h-5.891v-9.47h5.859v0.683h-5.059v3.571h4.428V30.706z"/>
			<path fill="#666D71" d="M189.563,35.245h-0.8v-8.787h-5.359v8.787h-0.8v-9.47h6.959V35.245z"/>
			<path fill="#666D71" d="M192.795,31.388v3.857h-0.8v-9.47h3.225c0.522,0,0.98,0.071,1.375,0.209
				c0.397,0.138,0.731,0.332,0.999,0.582c0.269,0.249,0.472,0.548,0.609,0.894c0.135,0.348,0.205,0.729,0.205,1.145
				c0,0.438-0.069,0.829-0.205,1.174c-0.137,0.345-0.338,0.637-0.606,0.875c-0.266,0.238-0.598,0.42-0.997,0.546
				c-0.4,0.126-0.859,0.188-1.38,0.188H192.795z M192.795,30.713h2.425c0.422,0,0.783-0.054,1.086-0.16
				c0.305-0.106,0.551-0.254,0.742-0.442c0.191-0.189,0.332-0.411,0.423-0.668c0.091-0.255,0.137-0.531,0.137-0.825
				c0-0.291-0.046-0.568-0.137-0.829c-0.091-0.263-0.232-0.492-0.423-0.689c-0.191-0.198-0.437-0.354-0.742-0.469
				c-0.303-0.114-0.665-0.172-1.086-0.172h-2.425V30.713z"/>
			<path fill="#666D71" d="M205.424,30.706h-4.428v3.862h5.091v0.677h-5.891v-9.47h5.859v0.683h-5.059v3.571h4.428V30.706z"/>
			<path fill="#666D71" d="M208.573,31.388v3.857h-0.8v-9.47h3.225c0.522,0,0.98,0.071,1.375,0.209
				c0.397,0.138,0.731,0.332,0.999,0.582c0.269,0.249,0.472,0.548,0.609,0.894c0.135,0.348,0.205,0.729,0.205,1.145
				c0,0.438-0.069,0.829-0.205,1.174c-0.137,0.345-0.338,0.637-0.606,0.875c-0.266,0.238-0.598,0.42-0.997,0.546
				c-0.4,0.126-0.859,0.188-1.38,0.188H208.573z M208.573,30.713h2.425c0.422,0,0.783-0.054,1.086-0.16
				c0.305-0.106,0.551-0.254,0.742-0.442c0.191-0.189,0.332-0.411,0.423-0.668c0.091-0.255,0.137-0.531,0.137-0.825
				c0-0.291-0.046-0.568-0.137-0.829c-0.091-0.263-0.232-0.492-0.423-0.689c-0.191-0.198-0.437-0.354-0.742-0.469
				c-0.303-0.114-0.665-0.172-1.086-0.172h-2.425V30.713z"/>
			<path fill="#666D71" d="M216.786,29.886h2.342c0.511,0,0.963,0.065,1.355,0.195c0.392,0.129,0.722,0.312,0.986,0.546
				c0.263,0.234,0.463,0.514,0.598,0.842c0.134,0.328,0.202,0.689,0.202,1.083c0,0.398-0.068,0.763-0.202,1.092
				c-0.135,0.329-0.335,0.612-0.598,0.849c-0.265,0.235-0.594,0.42-0.986,0.552c-0.392,0.132-0.845,0.198-1.355,0.198h-3.142v-9.47
				h0.8V29.886z M216.786,30.569v3.999h2.342c0.415,0,0.771-0.055,1.066-0.165c0.295-0.111,0.537-0.26,0.725-0.446
				c0.189-0.186,0.326-0.402,0.414-0.648c0.086-0.245,0.129-0.502,0.129-0.769c0-0.262-0.043-0.511-0.129-0.749
				c-0.088-0.238-0.225-0.448-0.414-0.631c-0.188-0.182-0.429-0.326-0.725-0.432c-0.295-0.106-0.651-0.158-1.066-0.158H216.786z
				 M224.629,35.245h-0.8v-9.47h0.8V35.245z"/>
			<path fill="#666D71" d="M227.094,35.245v-9.47h2.796c0.482,0,0.914,0.049,1.295,0.148c0.382,0.097,0.705,0.246,0.972,0.448
				c0.266,0.202,0.471,0.458,0.614,0.771c0.143,0.312,0.214,0.683,0.214,1.112c0,0.243-0.032,0.471-0.1,0.686
				c-0.068,0.214-0.166,0.411-0.295,0.588c-0.131,0.178-0.288,0.334-0.472,0.466c-0.185,0.132-0.394,0.237-0.628,0.315
				c0.278,0.06,0.529,0.162,0.755,0.302c0.225,0.142,0.418,0.312,0.579,0.514c0.16,0.202,0.283,0.426,0.371,0.674
				c0.086,0.246,0.129,0.506,0.129,0.78c0,0.434-0.072,0.815-0.217,1.148c-0.146,0.332-0.352,0.611-0.618,0.835
				c-0.266,0.226-0.586,0.395-0.959,0.511c-0.374,0.115-0.785,0.172-1.237,0.172H227.094z M227.894,30.023h2.185
				c0.668-0.014,1.185-0.171,1.551-0.472c0.366-0.302,0.549-0.74,0.549-1.317c0-0.606-0.189-1.054-0.569-1.343
				c-0.378-0.288-0.952-0.432-1.72-0.432h-1.996V30.023z M227.894,30.693v3.876h2.399c0.348,0,0.659-0.045,0.934-0.135
				c0.275-0.092,0.509-0.222,0.703-0.391c0.192-0.169,0.34-0.375,0.442-0.622c0.102-0.245,0.152-0.522,0.152-0.829
				c0-0.263-0.043-0.512-0.129-0.745c-0.088-0.231-0.22-0.432-0.4-0.605c-0.18-0.171-0.406-0.305-0.677-0.403
				c-0.271-0.097-0.591-0.146-0.959-0.146H227.894z"/>
			<path fill="#666D71" d="M242.273,35.245h-0.806v-4.539h-5.411v4.539h-0.8v-9.47h0.8v4.254h5.411v-4.254h0.806V35.245z"/>
			<path fill="#666D71" d="M251.677,31.025c0,0.663-0.086,1.262-0.26,1.797c-0.174,0.535-0.42,0.992-0.739,1.369
				s-0.705,0.669-1.16,0.875s-0.963,0.309-1.522,0.309c-0.555,0-1.06-0.103-1.512-0.309c-0.454-0.206-0.843-0.498-1.168-0.875
				c-0.325-0.377-0.577-0.834-0.754-1.369c-0.178-0.535-0.268-1.134-0.268-1.797v-1.015c0-0.663,0.089-1.263,0.268-1.802
				c0.177-0.537,0.426-0.995,0.748-1.375c0.32-0.378,0.708-0.671,1.16-0.877c0.454-0.206,0.957-0.309,1.512-0.309
				c0.56,0,1.066,0.103,1.522,0.309c0.455,0.206,0.845,0.498,1.168,0.877c0.323,0.38,0.571,0.839,0.745,1.375
				c0.174,0.538,0.26,1.139,0.26,1.802V31.025z M250.877,29.997c0-0.56-0.065-1.065-0.195-1.515
				c-0.129-0.451-0.318-0.834-0.565-1.148c-0.248-0.314-0.551-0.557-0.911-0.729c-0.36-0.171-0.768-0.257-1.223-0.257
				c-0.446,0-0.849,0.086-1.206,0.257c-0.357,0.172-0.662,0.415-0.911,0.729c-0.249,0.314-0.44,0.697-0.572,1.148
				c-0.132,0.451-0.198,0.955-0.198,1.515v1.028c0,0.563,0.068,1.071,0.202,1.522c0.135,0.451,0.328,0.834,0.58,1.151
				c0.251,0.317,0.555,0.558,0.912,0.728c0.358,0.169,0.76,0.254,1.208,0.254c0.458,0,0.868-0.085,1.225-0.254
				c0.358-0.169,0.66-0.411,0.905-0.728c0.245-0.317,0.431-0.7,0.558-1.151c0.129-0.451,0.192-0.959,0.192-1.522V29.997z"/>
			<path fill="#666D71" d="M254.754,25.775l3.493,8.357l3.505-8.357h1.066v9.47h-0.8V31.11l0.066-4.216l-3.525,8.351h-0.618
				l-3.513-8.317l0.066,4.182v4.136h-0.8v-9.47H254.754z"/>
		</g>
		<g>
			<path fill="#666D71" d="M105.606,51.158c0,1.288-0.163,2.441-0.489,3.459c-0.326,1.018-0.788,1.883-1.384,2.599
				c-0.598,0.714-1.32,1.261-2.169,1.638c-0.849,0.376-1.795,0.564-2.84,0.564c-1.013,0-1.945-0.189-2.792-0.564
				c-0.849-0.377-1.579-0.924-2.193-1.638c-0.612-0.716-1.088-1.581-1.426-2.599c-0.337-1.018-0.507-2.171-0.507-3.459v-1.084
				c0-1.28,0.169-2.434,0.507-3.459c0.337-1.026,0.809-1.896,1.415-2.61c0.604-0.716,1.331-1.264,2.18-1.645
				c0.849-0.38,1.779-0.572,2.792-0.572c1.045,0,1.993,0.192,2.847,0.572c0.852,0.38,1.579,0.929,2.18,1.645
				c0.601,0.714,1.064,1.584,1.391,2.61c0.326,1.025,0.489,2.179,0.489,3.459V51.158z M103.356,50.05
				c0-1.021-0.105-1.924-0.313-2.711c-0.208-0.785-0.513-1.445-0.913-1.98c-0.401-0.534-0.89-0.938-1.467-1.213
				c-0.577-0.275-1.232-0.412-1.963-0.412c-0.698,0-1.335,0.137-1.908,0.412c-0.574,0.275-1.063,0.679-1.467,1.213
				c-0.404,0.535-0.718,1.196-0.937,1.98c-0.221,0.786-0.331,1.689-0.331,2.711v1.108c0,1.029,0.112,1.937,0.336,2.722
				c0.224,0.786,0.54,1.448,0.949,1.985c0.408,0.539,0.9,0.946,1.474,1.221c0.572,0.275,1.208,0.412,1.908,0.412
				c0.738,0,1.394-0.137,1.968-0.412c0.574-0.275,1.06-0.682,1.456-1.221c0.396-0.537,0.697-1.199,0.901-1.985
				c0.205-0.785,0.307-1.693,0.307-2.722V50.05z"/>
			<path fill="#666D71" d="M119.464,43.887h-8.273v5.137h4.136c0.943,0,1.777,0.12,2.505,0.36s1.336,0.58,1.827,1.02
				c0.491,0.44,0.865,0.969,1.119,1.586c0.256,0.617,0.384,1.306,0.384,2.068c0,0.754-0.128,1.445-0.384,2.073
				c-0.254,0.63-0.63,1.17-1.125,1.621c-0.494,0.452-1.103,0.804-1.827,1.055c-0.722,0.251-1.555,0.377-2.498,0.377h-6.411V42.025
				h10.547V43.887z M111.191,50.886v6.446h4.136c0.63,0,1.168-0.09,1.621-0.27c0.452-0.181,0.822-0.425,1.108-0.73
				c0.288-0.307,0.497-0.659,0.631-1.055c0.133-0.396,0.2-0.812,0.2-1.244s-0.067-0.839-0.2-1.22
				c-0.134-0.38-0.344-0.714-0.631-1.002c-0.286-0.286-0.655-0.513-1.108-0.678c-0.452-0.165-0.991-0.248-1.621-0.248H111.191z"/>
			<path fill="#666D71" d="M126.477,52.465v6.718h-2.263V42.025h6.328c0.975,0,1.835,0.129,2.581,0.388
				c0.746,0.259,1.373,0.623,1.88,1.09c0.507,0.468,0.892,1.021,1.156,1.662c0.262,0.639,0.395,1.341,0.395,2.103
				c0,0.825-0.133,1.562-0.395,2.209c-0.264,0.649-0.649,1.192-1.156,1.632c-0.507,0.441-1.133,0.777-1.88,1.009
				c-0.746,0.232-1.606,0.347-2.581,0.347H126.477z M126.477,50.616h4.065c0.66,0,1.228-0.083,1.704-0.248
				c0.475-0.165,0.863-0.395,1.167-0.689c0.302-0.296,0.524-0.644,0.665-1.05c0.142-0.404,0.213-0.85,0.213-1.336
				c0-0.441-0.07-0.866-0.213-1.279c-0.141-0.412-0.363-0.777-0.665-1.09c-0.304-0.315-0.692-0.566-1.167-0.754
				c-0.476-0.189-1.044-0.283-1.704-0.283h-4.065V50.616z"/>
			<path fill="#666D71" d="M147.287,54.705h-7.189l-1.614,4.479h-2.334l6.553-17.158h1.98l6.563,17.158h-2.321L147.287,54.705z
				 M140.782,52.842h5.834l-2.923-8.025L140.782,52.842z"/>
			<path fill="#666D71" d="M158.719,49.508c0.644,0,1.199-0.07,1.662-0.213c0.464-0.141,0.841-0.34,1.132-0.595
				c0.291-0.256,0.505-0.558,0.643-0.908c0.137-0.35,0.206-0.737,0.206-1.16c0-0.409-0.075-0.794-0.224-1.156
				c-0.15-0.361-0.377-0.678-0.684-0.948c-0.307-0.272-0.7-0.486-1.178-0.643c-0.479-0.157-1.05-0.237-1.709-0.237
				c-0.495,0-0.959,0.074-1.391,0.219c-0.433,0.145-0.807,0.345-1.127,0.601c-0.318,0.256-0.569,0.559-0.753,0.913
				c-0.185,0.353-0.278,0.738-0.278,1.156h-2.262c0-0.73,0.155-1.391,0.465-1.98c0.31-0.59,0.729-1.088,1.255-1.496
				c0.526-0.409,1.141-0.722,1.844-0.943c0.703-0.221,1.451-0.331,2.246-0.331c0.919,0,1.752,0.105,2.498,0.313
				c0.746,0.208,1.383,0.518,1.908,0.93c0.526,0.412,0.933,0.922,1.22,1.526c0.288,0.606,0.43,1.307,0.43,2.11
				c0,0.793-0.243,1.517-0.73,2.167c-0.487,0.654-1.167,1.167-2.038,1.544c0.981,0.331,1.731,0.831,2.25,1.502
				c0.518,0.673,0.778,1.51,0.778,2.517c0,0.801-0.158,1.514-0.472,2.139c-0.315,0.625-0.751,1.149-1.309,1.573
				s-1.223,0.748-1.998,0.972c-0.774,0.224-1.619,0.336-2.538,0.336c-0.74,0-1.47-0.096-2.193-0.288
				c-0.722-0.193-1.371-0.491-1.944-0.897c-0.574-0.404-1.037-0.921-1.391-1.549c-0.355-0.628-0.531-1.383-0.531-2.263h2.262
				c0,0.433,0.091,0.841,0.272,1.226c0.181,0.385,0.438,0.721,0.772,1.007c0.334,0.288,0.735,0.513,1.202,0.678
				c0.467,0.166,0.985,0.248,1.55,0.248c0.644,0,1.216-0.078,1.72-0.235c0.503-0.157,0.927-0.376,1.272-0.654
				c0.347-0.28,0.609-0.609,0.79-0.991c0.181-0.38,0.272-0.799,0.272-1.255c0-1.061-0.332-1.838-0.996-2.334
				c-0.665-0.494-1.632-0.742-2.906-0.742h-1.956v-1.862H158.719z"/>
			<path fill="#666D71" d="M181.075,51.158c0,1.288-0.163,2.441-0.489,3.459c-0.326,1.018-0.788,1.883-1.384,2.599
				c-0.598,0.714-1.32,1.261-2.169,1.638c-0.849,0.376-1.795,0.564-2.84,0.564c-1.013,0-1.945-0.189-2.792-0.564
				c-0.849-0.377-1.579-0.924-2.193-1.638c-0.612-0.716-1.088-1.581-1.426-2.599c-0.337-1.018-0.507-2.171-0.507-3.459v-1.084
				c0-1.28,0.169-2.434,0.507-3.459c0.337-1.026,0.809-1.896,1.415-2.61c0.604-0.716,1.331-1.264,2.18-1.645
				c0.849-0.38,1.779-0.572,2.792-0.572c1.045,0,1.993,0.192,2.847,0.572c0.852,0.38,1.579,0.929,2.18,1.645
				c0.601,0.714,1.064,1.584,1.391,2.61c0.326,1.025,0.489,2.179,0.489,3.459V51.158z M178.824,50.05
				c0-1.021-0.105-1.924-0.313-2.711c-0.208-0.785-0.513-1.445-0.913-1.98c-0.401-0.534-0.89-0.938-1.467-1.213
				s-1.232-0.412-1.963-0.412c-0.698,0-1.335,0.137-1.908,0.412c-0.574,0.275-1.063,0.679-1.467,1.213
				c-0.404,0.535-0.718,1.196-0.937,1.98c-0.221,0.786-0.331,1.689-0.331,2.711v1.108c0,1.029,0.112,1.937,0.336,2.722
				c0.224,0.786,0.54,1.448,0.949,1.985c0.408,0.539,0.9,0.946,1.474,1.221c0.572,0.275,1.208,0.412,1.908,0.412
				c0.738,0,1.394-0.137,1.968-0.412c0.574-0.275,1.06-0.682,1.456-1.221c0.396-0.537,0.697-1.199,0.901-1.985
				c0.205-0.785,0.307-1.693,0.307-2.722V50.05z"/>
			<path fill="#666D71" d="M184.468,59.183V42.025h5.61c0.879,0,1.665,0.088,2.356,0.265c0.692,0.176,1.279,0.451,1.761,0.825
				c0.484,0.372,0.854,0.847,1.109,1.419c0.254,0.574,0.382,1.261,0.382,2.063c0,0.801-0.227,1.51-0.682,2.126
				c-0.457,0.617-1.077,1.095-1.862,1.432c0.478,0.134,0.905,0.331,1.279,0.59c0.372,0.259,0.687,0.566,0.941,0.919
				c0.256,0.353,0.451,0.75,0.583,1.191c0.134,0.44,0.201,0.9,0.201,1.378c0,0.802-0.136,1.51-0.408,2.127
				c-0.27,0.617-0.654,1.136-1.149,1.555c-0.494,0.42-1.092,0.737-1.79,0.949c-0.7,0.213-1.477,0.318-2.334,0.318H184.468z
				 M186.731,49.344h3.417c0.488,0,0.93-0.064,1.331-0.189c0.401-0.126,0.745-0.307,1.031-0.543
				c0.286-0.235,0.508-0.524,0.667-0.866c0.157-0.34,0.235-0.727,0.235-1.16c0-0.943-0.275-1.627-0.825-2.055
				c-0.55-0.428-1.387-0.643-2.509-0.643h-3.347V49.344z M186.731,51.158v6.174h3.735c0.542,0,1.023-0.072,1.443-0.217
				c0.42-0.145,0.775-0.35,1.066-0.612c0.291-0.264,0.513-0.585,0.667-0.967c0.153-0.38,0.23-0.807,0.23-1.279
				s-0.064-0.9-0.189-1.285c-0.126-0.384-0.324-0.71-0.596-0.978c-0.27-0.267-0.614-0.473-1.031-0.619
				c-0.416-0.145-0.911-0.217-1.485-0.217H186.731z"/>
			<path fill="#666D71" d="M208.969,54.705h-7.189l-1.614,4.479h-2.334l6.553-17.158h1.98l6.563,17.158h-2.321L208.969,54.705z
				 M202.463,52.842h5.834l-2.923-8.025L202.463,52.842z"/>
			<path fill="#666D71" d="M228.424,59.183h-2.274v-7.931h-8.649v7.931h-2.263V42.025h2.263v7.376h8.649v-7.376h2.274V59.183z"/>
			<path fill="#666D71" d="M243.261,42.025h2.263v17.158h-2.263V45.96l-8.449,13.223h-2.274V42.025h2.274v13.221L243.261,42.025z"/>
			<path fill="#666D71" d="M260.465,42.025h2.263v17.158h-2.263V45.96l-8.449,13.223h-2.274V42.025h2.274v13.221L260.465,42.025z"/>
		</g>
	</g>
	<g>
		<circle fill="#54C3ED" cx="12.685" cy="61.973" r="12.685"/>
		<path fill="#666D71" d="M12.685,46.148c2.521,0,4.899,0.611,6.999,1.686V45.48V15.813V6.996h-0.003
			C19.681,3.133,16.549,0,12.685,0C8.821,0,5.688,3.133,5.688,6.996H5.686v8.816V45.48v2.354
			C7.786,46.759,10.163,46.148,12.685,46.148z"/>
		<circle fill="#F2B54E" cx="37.045" cy="37.859" r="12.685"/>
		<g>
			<path fill="#666D71" d="M30.046,51.66v6.554v9.447h0.003c0,3.863,3.132,6.996,6.996,6.996c3.864,0,6.996-3.133,6.996-6.996h0.003
				v-9.447V51.66c-2.1,1.075-4.478,1.686-6.999,1.686C34.523,53.346,32.146,52.735,30.046,51.66z"/>
			<path fill="#666D71" d="M44.044,24.266v-4.437V7.006h-0.003c0-3.864-3.132-6.996-6.996-6.996c-3.864,0-6.996,3.132-6.996,6.996
				h-0.003v12.823v4.437c2.1-1.075,4.478-1.686,6.999-1.686C39.566,22.58,41.944,23.191,44.044,24.266z"/>
		</g>
		<circle fill="#E4635D" cx="61.605" cy="12.685" r="12.685"/>
		<path fill="#666D71" d="M61.605,28.257c-2.522,0-4.899-0.611-6.999-1.686v2.354v30.372v8.355h0.003
			c0,3.864,3.132,6.996,6.996,6.996c3.864,0,6.996-3.132,6.996-6.996h0.003v-8.355V28.925v-2.354
			C66.504,27.646,64.127,28.257,61.605,28.257z"/>
		<g opacity="0.5">
			<path fill="#303838" d="M30.553,38.358c-0.165-0.128-0.324-0.272-0.476-0.43c-0.897-0.891-1.346-1.968-1.346-3.231v-0.915h1.831
				v0.915c0,0.757,0.268,1.404,0.805,1.941c0.537,0.537,1.184,0.805,1.941,0.805c0.757,0,1.403-0.268,1.94-0.805
				c0.537-0.537,0.806-1.184,0.806-1.941v-0.915h1.831v0.915c0,1.264-0.446,2.341-1.337,3.231c-0.159,0.159-0.32,0.302-0.485,0.43
				c0.165,0.128,0.326,0.269,0.485,0.421c0.891,0.897,1.337,1.977,1.337,3.24v0.915h-1.831V42.02c0-0.757-0.269-1.404-0.806-1.941
				c-0.537-0.537-1.184-0.805-1.94-0.805c-0.757,0-1.404,0.269-1.941,0.805c-0.537,0.537-0.805,1.184-0.805,1.941v0.915h-1.831
				V42.02c0-1.263,0.449-2.343,1.346-3.24C30.23,38.627,30.389,38.487,30.553,38.358z"/>
			<path fill="#303838" d="M45.349,42.029c-0.788,0.604-1.703,0.906-2.746,0.906c-1.263,0-2.342-0.447-3.236-1.341
				s-1.341-1.973-1.341-3.236c0-1.263,0.447-2.342,1.341-3.236s1.973-1.341,3.236-1.341s2.342,0.448,3.236,1.341
				s1.341,1.973,1.341,3.236v4.577h-1.831V42.029z M42.603,35.612c-0.757,0-1.404,0.269-1.941,0.806
				c-0.537,0.537-0.805,1.184-0.805,1.94c0,0.757,0.268,1.404,0.805,1.941c0.537,0.537,1.184,0.805,1.941,0.805
				c0.757,0,1.403-0.268,1.94-0.805c0.537-0.537,0.806-1.184,0.806-1.941c0-0.757-0.269-1.403-0.806-1.94
				C44.006,35.881,43.36,35.612,42.603,35.612z"/>
		</g>
		<g opacity="0.5">
			<path fill="#303838" d="M52.722,13.308c0-1.263,0.447-2.342,1.341-3.236c0.894-0.894,1.973-1.341,3.236-1.341
				s2.342,0.448,3.236,1.341c0.894,0.894,1.341,1.973,1.341,3.236s-0.448,2.342-1.341,3.236s-1.973,1.341-3.236,1.341
				c-1.044,0-1.959-0.302-2.746-0.906v2.525h-1.831V13.308z M57.299,16.055c0.757,0,1.403-0.268,1.94-0.805
				c0.537-0.537,0.806-1.184,0.806-1.941c0-0.757-0.269-1.403-0.806-1.94c-0.537-0.537-1.184-0.806-1.94-0.806
				c-0.757,0-1.404,0.269-1.941,0.806c-0.537,0.537-0.805,1.184-0.805,1.94c0,0.757,0.268,1.404,0.805,1.941
				C55.895,15.786,56.542,16.055,57.299,16.055z"/>
			<path fill="#303838" d="M71.979,15.249c-0.537-0.537-0.805-1.184-0.805-1.941V8.731H71.17h-1.828h-0.003v4.577
				c0,0.757-0.269,1.404-0.806,1.941s-1.184,0.805-1.94,0.805c-0.757,0-1.404-0.268-1.941-0.805
				c-0.537-0.537-0.805-1.184-0.805-1.941V8.731h-1.831v4.577c0,1.263,0.447,2.342,1.341,3.236s1.973,1.341,3.236,1.341
				s2.342-0.447,3.236-1.341c0.158-0.158,0.297-0.324,0.427-0.494c0.13,0.17,0.269,0.336,0.427,0.494
				c0.457,0.457,0.964,0.796,1.517,1.019v-2.13C72.127,15.373,72.049,15.32,71.979,15.249z"/>
		</g>
		<g>
			<path fill="#FFFFFF" d="M30.177,37.859c-0.165-0.128-0.324-0.272-0.476-0.43c-0.897-0.891-1.346-1.968-1.346-3.231v-0.915h1.831
				v0.915c0,0.757,0.268,1.404,0.805,1.941c0.537,0.537,1.184,0.805,1.941,0.805c0.757,0,1.403-0.268,1.94-0.805
				c0.537-0.537,0.806-1.184,0.806-1.941v-0.915h1.831v0.915c0,1.264-0.446,2.341-1.337,3.231c-0.159,0.159-0.32,0.302-0.485,0.43
				c0.165,0.128,0.326,0.269,0.485,0.421c0.891,0.897,1.337,1.977,1.337,3.24v0.915h-1.831v-0.915c0-0.757-0.269-1.404-0.806-1.941
				c-0.537-0.537-1.184-0.805-1.94-0.805c-0.757,0-1.404,0.269-1.941,0.805c-0.537,0.537-0.805,1.184-0.805,1.941v0.915h-1.831
				v-0.915c0-1.263,0.449-2.343,1.346-3.24C29.854,38.128,30.012,37.987,30.177,37.859z"/>
			<path fill="#FFFFFF" d="M44.973,41.53c-0.788,0.604-1.703,0.906-2.746,0.906c-1.263,0-2.342-0.447-3.236-1.341
				s-1.341-1.973-1.341-3.236c0-1.263,0.447-2.342,1.341-3.236s1.973-1.341,3.236-1.341c1.263,0,2.342,0.448,3.236,1.341
				c0.894,0.894,1.341,1.973,1.341,3.236v4.577h-1.831V41.53z M42.227,35.113c-0.757,0-1.404,0.269-1.941,0.806
				c-0.537,0.537-0.805,1.184-0.805,1.94c0,0.757,0.268,1.404,0.805,1.941c0.537,0.537,1.184,0.805,1.941,0.805
				c0.757,0,1.403-0.268,1.94-0.805c0.537-0.537,0.806-1.184,0.806-1.941c0-0.757-0.269-1.403-0.806-1.94
				C43.63,35.382,42.983,35.113,42.227,35.113z"/>
		</g>
		<g>
			<path fill="#FFFFFF" d="M52.346,12.809c0-1.263,0.447-2.342,1.341-3.236c0.894-0.894,1.973-1.341,3.236-1.341
				c1.263,0,2.342,0.448,3.236,1.341c0.894,0.894,1.341,1.973,1.341,3.236s-0.448,2.342-1.341,3.236s-1.973,1.341-3.236,1.341
				c-1.044,0-1.959-0.302-2.746-0.906v2.525h-1.831V12.809z M56.923,15.556c0.757,0,1.403-0.268,1.94-0.805
				c0.537-0.537,0.806-1.184,0.806-1.941c0-0.757-0.269-1.403-0.806-1.94c-0.537-0.537-1.184-0.806-1.94-0.806
				c-0.757,0-1.404,0.269-1.941,0.806c-0.537,0.537-0.805,1.184-0.805,1.94c0,0.757,0.268,1.404,0.805,1.941
				C55.519,15.287,56.165,15.556,56.923,15.556z"/>
			<path fill="#FFFFFF" d="M71.602,14.75c-0.537-0.537-0.805-1.184-0.805-1.941V8.232h-0.003h-1.828h-0.003v4.577
				c0,0.757-0.269,1.404-0.806,1.941c-0.537,0.537-1.184,0.805-1.94,0.805c-0.757,0-1.404-0.268-1.941-0.805
				c-0.537-0.537-0.805-1.184-0.805-1.941V8.232H61.64v4.577c0,1.263,0.447,2.342,1.341,3.236s1.973,1.341,3.236,1.341
				c1.263,0,2.342-0.447,3.236-1.341c0.158-0.158,0.297-0.324,0.427-0.494c0.13,0.17,0.269,0.336,0.427,0.494
				c0.457,0.457,0.964,0.796,1.517,1.019v-2.13C71.75,14.874,71.673,14.821,71.602,14.75z"/>
		</g>
		<g opacity="0.5">
			<path fill="#303838" d="M10.652,63.634h1.895c-0.171,0.879-0.589,1.651-1.254,2.316c-0.897,0.897-1.977,1.346-3.24,1.346
				s-2.342-0.447-3.236-1.341s-1.341-1.973-1.341-3.236s0.447-2.342,1.341-3.236s1.973-1.341,3.236-1.341s2.343,0.446,3.24,1.337
				c0.665,0.671,1.083,1.447,1.254,2.325h-1.895c-0.135-0.378-0.354-0.72-0.659-1.025c-0.537-0.537-1.184-0.806-1.94-0.806
				c-0.757,0-1.404,0.269-1.941,0.806c-0.537,0.537-0.805,1.184-0.805,1.94c0,0.757,0.268,1.404,0.805,1.941
				c0.537,0.537,1.184,0.805,1.941,0.805c0.757,0,1.403-0.268,1.94-0.805C10.298,64.354,10.517,64.013,10.652,63.634z"/>
			<path fill="#303838" d="M21.924,66.381c0,1.263-0.448,2.342-1.341,3.236c-0.894,0.894-1.973,1.341-3.236,1.341v-1.831
				c0.757,0,1.403-0.269,1.94-0.805c0.537-0.537,0.806-1.181,0.806-1.932c-0.788,0.604-1.703,0.906-2.746,0.906
				c-1.263,0-2.342-0.447-3.236-1.341s-1.341-1.973-1.341-3.236v-4.577H14.6v4.577c0,0.757,0.268,1.404,0.805,1.941
				c0.537,0.537,1.184,0.805,1.941,0.805c0.757,0,1.403-0.268,1.94-0.805c0.537-0.537,0.806-1.184,0.806-1.941v-4.577h1.831V66.381z
				"/>
		</g>
		<g>
			<path fill="#FFFFFF" d="M10.276,63.135h1.895c-0.171,0.879-0.589,1.651-1.254,2.316c-0.897,0.897-1.977,1.346-3.24,1.346
				S5.334,66.35,4.44,65.456s-1.341-1.973-1.341-3.236c0-1.263,0.447-2.342,1.341-3.236s1.973-1.341,3.236-1.341
				s2.343,0.446,3.24,1.337c0.665,0.671,1.083,1.447,1.254,2.325h-1.895c-0.135-0.378-0.354-0.72-0.659-1.025
				c-0.537-0.537-1.184-0.806-1.94-0.806c-0.757,0-1.404,0.269-1.941,0.806c-0.537,0.537-0.805,1.184-0.805,1.94
				c0,0.757,0.268,1.404,0.805,1.941c0.537,0.537,1.184,0.805,1.941,0.805c0.757,0,1.403-0.268,1.94-0.805
				C9.921,63.855,10.141,63.514,10.276,63.135z"/>
			<path fill="#FFFFFF" d="M21.547,65.881c0,1.263-0.448,2.342-1.341,3.236c-0.894,0.894-1.973,1.341-3.236,1.341v-1.831
				c0.757,0,1.403-0.269,1.94-0.805c0.537-0.537,0.806-1.181,0.806-1.932c-0.788,0.604-1.703,0.906-2.746,0.906
				c-1.263,0-2.342-0.447-3.236-1.341s-1.341-1.973-1.341-3.236v-4.577h1.831v4.577c0,0.757,0.268,1.404,0.805,1.941
				c0.537,0.537,1.184,0.805,1.941,0.805c0.757,0,1.403-0.268,1.94-0.805c0.537-0.537,0.806-1.184,0.806-1.941v-4.577h1.831V65.881z
				"/>
		</g>
	</g>
</g>
</svg>
