<?xml version="1.0" encoding="utf-8"?>
<!-- Generator: Adobe Illustrator 22.1.0, SVG Export Plug-In . SVG Version: 6.00 Build 0)  -->
<svg version="1.1"
	 id="Слой_1" xmlns:cc="http://creativecommons.org/ns#" xmlns:dc="http://purl.org/dc/elements/1.1/" xmlns:rdf="http://www.w3.org/1999/02/22-rdf-syntax-ns#" xmlns:svg="http://www.w3.org/2000/svg"
	 xmlns="http://www.w3.org/2000/svg" xmlns:xlink="http://www.w3.org/1999/xlink" x="0px" y="0px" viewBox="0 0 211 63"
	 style="enable-background:new 0 0 211 63;" xml:space="preserve">
<style type="text/css">
	.st0{fill:#6CC3D9;}
	.st1{fill:#FFFFFF;}
	.st2{fill:#F5AF2D;}
	.st3{fill:#ED3F3F;}
	.st4{opacity:0.5;}
	.st5{fill:#212121;}
</style>
<g id="g54" transform="translate(0,-37)">
	<path id="path2" class="st0" d="M18.2,81.9c-4.2-4.1-10.9-4.1-15.1,0s-4.2,10.9,0,15s10.9,4.1,15.1,0S22.4,86,18.2,81.9z"/>
	<path id="path4" class="st1" d="M10.7,76.1c2.1,0,4.1,0.5,5.9,1.4v-2V50.7v-7.4h0c0-3.2-2.6-5.9-5.9-5.9s-5.9,2.6-5.9,5.9h0v7.4
		v24.8v2C6.6,76.6,8.6,76.1,10.7,76.1z"/>
	<path id="path6" class="st2" d="M38.7,61.7c-4.2-4.1-10.9-4.1-15.1,0s-4.2,10.9,0,15s10.9,4.1,15.1,0S42.9,65.8,38.7,61.7z"/>
	<g id="g12" transform="matrix(0.62523341,0,0,0.62523434,0,37.476566)">
		<path id="path8" class="st1" d="M40.4,69.2V78v12.7h0c0,5.2,4.2,9.4,9.4,9.4s9.4-4.2,9.4-9.4h0V78v-8.8c-2.8,1.4-6,2.3-9.4,2.3
			C46.5,71.5,43.3,70.6,40.4,69.2z"/>
		<path id="path10" class="st1" d="M59.3,32.5v-5.9V9.4h0c0-5.2-4.2-9.4-9.4-9.4s-9.4,4.2-9.4,9.4h0v17.2v5.9c2.8-1.4,6-2.3,9.4-2.3
			C53.3,30.2,56.5,31.1,59.3,32.5z"/>
	</g>
	<path id="path14" class="st3" d="M59.4,40.6c-4.2-4.1-10.9-4.1-15.1,0s-4.2,10.9,0,15s10.9,4.1,15.1,0S63.6,44.7,59.4,40.6z"/>
	<path id="path16" class="st1" d="M51.8,61.1c-2.1,0-4.1-0.5-5.9-1.4v2v25.4v7h0c0,3.2,2.6,5.9,5.9,5.9c3.3,0,5.9-2.6,5.9-5.9h0v-7
		V61.7v-2C56,60.6,54,61.1,51.8,61.1z"/>
	<g id="g22" transform="matrix(0.62523341,0,0,0.62523434,0,37.476566)" class="st4">
		<path id="path18" class="st5" d="M41.1,51.4c-0.2-0.2-0.4-0.4-0.6-0.6c-1.2-1.2-1.8-2.6-1.8-4.3v-1.2h2.5v1.2c0,1,0.4,1.9,1.1,2.6
			c0.7,0.7,1.6,1.1,2.6,1.1c1,0,1.9-0.4,2.6-1.1c0.7-0.7,1.1-1.6,1.1-2.6v-1.2H51v1.2c0,1.7-0.6,3.1-1.8,4.3
			c-0.2,0.2-0.4,0.4-0.7,0.6c0.2,0.2,0.4,0.4,0.7,0.6c1.2,1.2,1.8,2.6,1.8,4.3v1.2h-2.5v-1.2c0-1-0.4-1.9-1.1-2.6
			c-0.7-0.7-1.6-1.1-2.6-1.1s-1.9,0.4-2.6,1.1c-0.7,0.7-1.1,1.6-1.1,2.6v1.2h-2.5v-1.2c0-1.7,0.6-3.1,1.8-4.3
			C40.7,51.7,40.9,51.6,41.1,51.4z"/>
		<path id="path20" class="st5" d="M61,56.3c-1.1,0.8-2.3,1.2-3.7,1.2c-1.7,0-3.2-0.6-4.4-1.8s-1.8-2.6-1.8-4.3
			c0-1.7,0.6-3.1,1.8-4.3c1.2-1.2,2.7-1.8,4.4-1.8s3.2,0.6,4.4,1.8c1.2,1.2,1.8,2.6,1.8,4.3v6.1H61V56.3z M57.3,47.7
			c-1,0-1.9,0.4-2.6,1.1c-0.7,0.7-1.1,1.6-1.1,2.6c0,1,0.4,1.9,1.1,2.6c0.7,0.7,1.6,1.1,2.6,1.1c1,0,1.9-0.4,2.6-1.1
			s1.1-1.6,1.1-2.6c0-1-0.4-1.9-1.1-2.6C59.2,48.1,58.4,47.7,57.3,47.7z"/>
	</g>
	<g id="g28" transform="matrix(0.62523341,0,0,0.62523434,0,37.476566)" class="st4">
		<path id="path24" class="st5" d="M71,17.8c0-1.7,0.6-3.1,1.8-4.3s2.7-1.8,4.4-1.8c1.7,0,3.2,0.6,4.4,1.8c1.2,1.2,1.8,2.6,1.8,4.3
			c0,1.7-0.6,3.1-1.8,4.3c-1.2,1.2-2.7,1.8-4.4,1.8c-1.4,0-2.6-0.4-3.7-1.2v3.4H71L71,17.8z M77.1,21.5c1,0,1.9-0.4,2.6-1.1
			s1.1-1.6,1.1-2.6c0-1-0.4-1.9-1.1-2.6c-0.7-0.7-1.6-1.1-2.6-1.1s-1.9,0.4-2.6,1.1c-0.7,0.7-1.1,1.6-1.1,2.6c0,1,0.4,1.9,1.1,2.6
			C75.2,21.1,76.1,21.5,77.1,21.5z"/>
		<path id="path26" class="st5" d="M96.9,20.4c-0.7-0.7-1.1-1.6-1.1-2.6v-6.1h0h-2.5h0v6.1c0,1-0.4,1.9-1.1,2.6
			c-0.7,0.7-1.6,1.1-2.6,1.1s-1.9-0.4-2.6-1.1c-0.7-0.7-1.1-1.6-1.1-2.6v-6.1h-2.5v6.1c0,1.7,0.6,3.1,1.8,4.3
			c1.2,1.2,2.7,1.8,4.4,1.8c1.7,0,3.2-0.6,4.4-1.8c0.2-0.2,0.4-0.4,0.6-0.7c0.2,0.2,0.4,0.5,0.6,0.7c0.6,0.6,1.3,1.1,2,1.4v-2.9
			C97.1,20.6,97,20.5,96.9,20.4z"/>
	</g>
	<g id="g34" transform="matrix(0.62523341,0,0,0.62523434,0,37.476566)">
		<path id="path30" class="st1" d="M40.6,50.7c-0.2-0.2-0.4-0.4-0.6-0.6c-1.2-1.2-1.8-2.6-1.8-4.3v-1.2h2.5v1.2c0,1,0.4,1.9,1.1,2.6
			c0.7,0.7,1.6,1.1,2.6,1.1c1,0,1.9-0.4,2.6-1.1c0.7-0.7,1.1-1.6,1.1-2.6v-1.2h2.5v1.2c0,1.7-0.6,3.1-1.8,4.3
			c-0.2,0.2-0.4,0.4-0.7,0.6c0.2,0.2,0.4,0.4,0.7,0.6c1.2,1.2,1.8,2.6,1.8,4.3v1.2H48v-1.2c0-1-0.4-1.9-1.1-2.6
			c-0.7-0.7-1.6-1.1-2.6-1.1c-1,0-1.9,0.4-2.6,1.1c-0.7,0.7-1.1,1.6-1.1,2.6v1.2h-2.5v-1.2c0-1.7,0.6-3.1,1.8-4.3
			C40.2,51.1,40.4,50.9,40.6,50.7z"/>
		<path id="path32" class="st1" d="M60.5,55.6c-1.1,0.8-2.3,1.2-3.7,1.2c-1.7,0-3.2-0.6-4.4-1.8s-1.8-2.6-1.8-4.3
			c0-1.7,0.6-3.1,1.8-4.3s2.7-1.8,4.4-1.8s3.2,0.6,4.4,1.8c1.2,1.2,1.8,2.6,1.8,4.3v6.1h-2.5V55.6z M56.8,47c-1,0-1.9,0.4-2.6,1.1
			c-0.7,0.7-1.1,1.6-1.1,2.6c0,1,0.4,1.9,1.1,2.6c0.7,0.7,1.6,1.1,2.6,1.1c1,0,1.9-0.4,2.6-1.1c0.7-0.7,1.1-1.6,1.1-2.6
			c0-1-0.4-1.9-1.1-2.6C58.7,47.4,57.9,47,56.8,47z"/>
	</g>
	<g id="g40" transform="matrix(0.62523341,0,0,0.62523434,0,37.476566)">
		<path id="path36" class="st1" d="M70.5,17.2c0-1.7,0.6-3.1,1.8-4.3s2.7-1.8,4.4-1.8c1.7,0,3.2,0.6,4.4,1.8
			c1.2,1.2,1.8,2.6,1.8,4.3c0,1.7-0.6,3.1-1.8,4.3c-1.2,1.2-2.7,1.8-4.4,1.8c-1.4,0-2.6-0.4-3.7-1.2v3.4h-2.5L70.5,17.2z M76.6,20.8
			c1,0,1.9-0.4,2.6-1.1c0.7-0.7,1.1-1.6,1.1-2.6c0-1-0.4-1.9-1.1-2.6c-0.7-0.7-1.6-1.1-2.6-1.1s-1.9,0.4-2.6,1.1
			c-0.7,0.7-1.1,1.6-1.1,2.6c0,1,0.4,1.9,1.1,2.6S75.6,20.8,76.6,20.8z"/>
		<path id="path38" class="st1" d="M96.4,19.8c-0.7-0.7-1.1-1.6-1.1-2.6V11h0h-2.5h0v6.1c0,1-0.4,1.9-1.1,2.6s-1.6,1.1-2.6,1.1
			s-1.9-0.4-2.6-1.1c-0.7-0.7-1.1-1.6-1.1-2.6V11H83v6.1c0,1.7,0.6,3.1,1.8,4.3c1.2,1.2,2.7,1.8,4.4,1.8c1.7,0,3.2-0.6,4.4-1.8
			c0.2-0.2,0.4-0.4,0.6-0.7c0.2,0.2,0.4,0.5,0.6,0.7c0.6,0.6,1.3,1.1,2,1.4V20C96.6,19.9,96.5,19.9,96.4,19.8z"/>
	</g>
	<g id="g46" transform="matrix(0.62523341,0,0,0.62523434,0,37.476566)" class="st4">
		<path id="path42" class="st5" d="M14.3,85.2h2.6c-0.2,1.2-0.8,2.2-1.7,3.1c-1.2,1.2-2.7,1.8-4.4,1.8s-3.2-0.6-4.4-1.8
			S4.7,85.7,4.7,84c0-1.7,0.6-3.1,1.8-4.3s2.7-1.8,4.4-1.8s3.2,0.6,4.4,1.8c0.9,0.9,1.5,1.9,1.7,3.1h-2.6c-0.2-0.5-0.5-1-0.9-1.4
			c-0.7-0.7-1.6-1.1-2.6-1.1s-1.9,0.4-2.6,1.1C7.5,82.1,7.1,83,7.1,84c0,1,0.4,1.9,1.1,2.6c0.7,0.7,1.6,1.1,2.6,1.1
			c1,0,1.9-0.4,2.6-1.1C13.9,86.2,14.2,85.7,14.3,85.2z"/>
		<path id="path44" class="st5" d="M29.5,88.9c0,1.7-0.6,3.1-1.8,4.3c-1.2,1.2-2.7,1.8-4.4,1.8v-2.5c1,0,1.9-0.4,2.6-1.1
			s1.1-1.6,1.1-2.6c-1.1,0.8-2.3,1.2-3.7,1.2c-1.7,0-3.2-0.6-4.4-1.8s-1.8-2.6-1.8-4.3v-6.1h2.5V84c0,1,0.4,1.9,1.1,2.6
			c0.7,0.7,1.6,1.1,2.6,1.1c1,0,1.9-0.4,2.6-1.1C26.7,85.9,27,85,27,84v-6.1h2.5L29.5,88.9z"/>
	</g>
	<g id="g52" transform="matrix(0.62523341,0,0,0.62523434,0,37.476566)">
		<path id="path48" class="st1" d="M13.8,84.6h2.6c-0.2,1.2-0.8,2.2-1.7,3.1c-1.2,1.2-2.7,1.8-4.4,1.8S7.2,88.9,6,87.7
			S4.2,85,4.2,83.3c0-1.7,0.6-3.1,1.8-4.3s2.7-1.8,4.4-1.8s3.2,0.6,4.4,1.8c0.9,0.9,1.5,1.9,1.7,3.1h-2.6c-0.2-0.5-0.5-1-0.9-1.4
			c-0.7-0.7-1.6-1.1-2.6-1.1S8.4,80,7.7,80.7c-0.7,0.7-1.1,1.6-1.1,2.6c0,1,0.4,1.9,1.1,2.6c0.7,0.7,1.6,1.1,2.6,1.1
			c1,0,1.9-0.4,2.6-1.1C13.4,85.5,13.7,85.1,13.8,84.6z"/>
		<path id="path50" class="st1" d="M29,88.2c0,1.7-0.6,3.1-1.8,4.3c-1.2,1.2-2.7,1.8-4.4,1.8v-2.5c1,0,1.9-0.4,2.6-1.1
			s1.1-1.6,1.1-2.6c-1.1,0.8-2.3,1.2-3.7,1.2c-1.7,0-3.2-0.6-4.4-1.8c-1.2-1.2-1.8-2.6-1.8-4.3v-6.1h2.5v6.1c0,1,0.4,1.9,1.1,2.6
			c0.7,0.7,1.6,1.1,2.6,1.1c1,0,1.9-0.4,2.6-1.1c0.7-0.7,1.1-1.6,1.1-2.6v-6.1H29L29,88.2z"/>
	</g>
	<g id="g64" transform="matrix(1.3062138,0,0,1.3062138,69.26711,54.498726)">
		<g id="g38">
			<path id="path2-7" class="st1" d="M4.4,6.1H3.9V0.5H0.5v5.6H0v-6h4.4V6.1z"/>
			<path id="path4-5" class="st1" d="M10.4,3.4c0,0.4-0.1,0.8-0.2,1.1C10.1,4.9,10,5.2,9.8,5.4C9.6,5.7,9.3,5.8,9,6
				c-0.3,0.1-0.6,0.2-1,0.2c-0.4,0-0.7-0.1-1-0.2C6.8,5.8,6.6,5.7,6.4,5.4C6.2,5.2,6,4.9,5.9,4.6C5.8,4.2,5.7,3.8,5.7,3.4V2.8
				c0-0.4,0.1-0.8,0.2-1.1C6,1.3,6.2,1,6.4,0.8c0.2-0.2,0.4-0.4,0.7-0.6C7.4,0.1,7.7,0,8.1,0c0.4,0,0.7,0.1,1,0.2
				c0.3,0.1,0.5,0.3,0.7,0.6C10,1,10.1,1.3,10.2,1.6c0.1,0.3,0.2,0.7,0.2,1.1L10.4,3.4L10.4,3.4z M9.9,2.8c0-0.4,0-0.7-0.1-1
				S9.6,1.3,9.4,1.1C9.3,0.9,9.1,0.7,8.8,0.6C8.6,0.5,8.3,0.4,8.1,0.4c-0.3,0-0.5,0.1-0.8,0.2C7.1,0.7,6.9,0.9,6.7,1.1
				S6.4,1.5,6.4,1.8c-0.1,0.3-0.1,0.6-0.1,1v0.7c0,0.4,0,0.7,0.1,1c0.1,0.3,0.2,0.5,0.4,0.7c0.2,0.2,0.4,0.4,0.6,0.5
				c0.2,0.1,0.5,0.2,0.8,0.2c0.3,0,0.6-0.1,0.8-0.2c0.2-0.1,0.4-0.3,0.6-0.5c0.2-0.2,0.3-0.4,0.4-0.7c0.1-0.3,0.1-0.6,0.1-1L9.9,2.8
				L9.9,2.8z"/>
			<path id="path6-6" class="st1" d="M12.2,3.6v2.4h-0.5v-6h2c0.3,0,0.6,0,0.9,0.1c0.3,0.1,0.5,0.2,0.6,0.4c0.2,0.2,0.3,0.3,0.4,0.6
				c0.1,0.2,0.1,0.5,0.1,0.7c0,0.3,0,0.5-0.1,0.7c-0.1,0.2-0.2,0.4-0.4,0.6c-0.2,0.2-0.4,0.3-0.6,0.3c-0.3,0.1-0.5,0.1-0.9,0.1H12.2
				z M12.2,3.2h1.5c0.3,0,0.5,0,0.7-0.1C14.6,3,14.8,3,14.9,2.8c0.1-0.1,0.2-0.3,0.3-0.4c0.1-0.2,0.1-0.3,0.1-0.5
				c0-0.2,0-0.4-0.1-0.5C15.1,1.2,15,1,14.9,0.9c-0.1-0.1-0.3-0.2-0.5-0.3c-0.2-0.1-0.4-0.1-0.7-0.1h-1.5V3.2z"/>
			<path id="path8-6" class="st1" d="M21,0.5h-2.1v5.6h-0.5V0.5h-2.1V0.1H21L21,0.5L21,0.5z"/>
			<path id="path10-2" class="st1" d="M24.9,4.4h-2.7l-0.6,1.7H21l2.3-6h0.5l2.3,6h-0.5L24.9,4.4z M22.3,4h2.4l-1.2-3.3L22.3,4z"/>
			<path id="path12" class="st1" d="M31.4,0.1v6h-0.5V0.5h-2.5l-0.1,2.3c0,0.6-0.1,1.1-0.1,1.5c-0.1,0.4-0.2,0.8-0.3,1
				c-0.1,0.3-0.3,0.5-0.5,0.6c-0.2,0.1-0.5,0.2-0.8,0.2h-0.2V5.7h0.2c0.2,0,0.4,0,0.5-0.1s0.3-0.2,0.3-0.5c0.1-0.2,0.2-0.5,0.2-0.9
				c0-0.4,0.1-0.8,0.1-1.4l0.1-2.7L31.4,0.1L31.4,0.1z"/>
			<path id="path14-7" class="st1" d="M41.4,3.4c0,0.4-0.1,0.8-0.2,1.1S41,5.2,40.8,5.4c-0.2,0.2-0.4,0.4-0.7,0.6
				c-0.3,0.1-0.6,0.2-1,0.2c-0.4,0-0.7-0.1-1-0.2c-0.3-0.1-0.5-0.3-0.7-0.6c-0.2-0.2-0.4-0.5-0.5-0.9c-0.1-0.3-0.2-0.7-0.2-1.1V2.8
				c0-0.4,0.1-0.8,0.2-1.1C37,1.3,37.2,1,37.4,0.8c0.2-0.2,0.4-0.4,0.7-0.6c0.3-0.1,0.6-0.2,1-0.2c0.4,0,0.7,0.1,1,0.2
				s0.5,0.3,0.7,0.6s0.4,0.5,0.5,0.9c0.1,0.3,0.2,0.7,0.2,1.1V3.4z M40.9,2.8c0-0.4,0-0.7-0.1-1c-0.1-0.3-0.2-0.5-0.4-0.7
				c-0.2-0.2-0.3-0.4-0.6-0.5c-0.2-0.1-0.5-0.2-0.8-0.2c-0.3,0-0.5,0.1-0.8,0.2c-0.2,0.1-0.4,0.3-0.6,0.5c-0.2,0.2-0.3,0.4-0.4,0.7
				s-0.1,0.6-0.1,1v0.7c0,0.4,0,0.7,0.1,1c0.1,0.3,0.2,0.5,0.4,0.7c0.2,0.2,0.4,0.4,0.6,0.5c0.2,0.1,0.5,0.2,0.8,0.2
				c0.3,0,0.6-0.1,0.8-0.2c0.2-0.1,0.4-0.3,0.6-0.5c0.2-0.2,0.3-0.4,0.4-0.7c0.1-0.3,0.1-0.6,0.1-1L40.9,2.8L40.9,2.8z"/>
			<path id="path16-8" class="st1" d="M51.3,6.1h-0.5V3.2h-3.4v2.9h-0.5v-6h0.5v2.7h3.4V0.1h0.5L51.3,6.1L51.3,6.1z"/>
			<path id="path18-2" class="st1" d="M56.1,3.2h-2.8v2.5h3.2v0.4h-3.7v-6h3.7v0.4h-3.2v2.3h2.8L56.1,3.2z"/>
			<path id="path20-2" class="st1" d="M62.1,6.1h-0.5V0.5h-3.4v5.6h-0.5v-6h4.4V6.1z"/>
			<path id="path22" class="st1" d="M64.1,3.6v2.4h-0.5v-6h2c0.3,0,0.6,0,0.9,0.1c0.3,0.1,0.5,0.2,0.6,0.4c0.2,0.2,0.3,0.3,0.4,0.6
				c0.1,0.2,0.1,0.5,0.1,0.7c0,0.3,0,0.5-0.1,0.7c-0.1,0.2-0.2,0.4-0.4,0.6c-0.2,0.2-0.4,0.3-0.6,0.3c-0.3,0.1-0.5,0.1-0.9,0.1H64.1
				z M64.1,3.2h1.5c0.3,0,0.5,0,0.7-0.1C66.5,3,66.7,3,66.8,2.8c0.1-0.1,0.2-0.3,0.3-0.4c0.1-0.2,0.1-0.3,0.1-0.5
				c0-0.2,0-0.4-0.1-0.5C67,1.2,66.9,1,66.8,0.9c-0.1-0.1-0.3-0.2-0.5-0.3c-0.2-0.1-0.4-0.1-0.7-0.1h-1.5V3.2z"/>
			<path id="path24-4" class="st1" d="M72.1,3.2h-2.8v2.5h3.2v0.4h-3.7v-6h3.7v0.4h-3.2v2.3h2.8V3.2z"/>
			<path id="path26-3" class="st1" d="M74.1,3.6v2.4h-0.5v-6h2c0.3,0,0.6,0,0.9,0.1c0.3,0.1,0.5,0.2,0.6,0.4
				c0.2,0.2,0.3,0.3,0.4,0.6c0.1,0.2,0.1,0.5,0.1,0.7c0,0.3,0,0.5-0.1,0.7c-0.1,0.2-0.2,0.4-0.4,0.6c-0.2,0.2-0.4,0.3-0.6,0.3
				c-0.3,0.1-0.5,0.1-0.9,0.1H74.1z M74.1,3.2h1.5c0.3,0,0.5,0,0.7-0.1C76.6,3,76.7,3,76.8,2.8C77,2.7,77,2.6,77.1,2.4
				c0.1-0.2,0.1-0.3,0.1-0.5c0-0.2,0-0.4-0.1-0.5C77,1.2,77,1,76.8,0.9c-0.1-0.1-0.3-0.2-0.5-0.3c-0.2-0.1-0.4-0.1-0.7-0.1h-1.5V3.2
				z"/>
			<path id="path28" class="st1" d="M79.3,2.7h1.5c0.3,0,0.6,0,0.9,0.1c0.2,0.1,0.5,0.2,0.6,0.3c0.2,0.1,0.3,0.3,0.4,0.5
				c0.1,0.2,0.1,0.4,0.1,0.7c0,0.3,0,0.5-0.1,0.7c-0.1,0.2-0.2,0.4-0.4,0.5c-0.2,0.1-0.4,0.3-0.6,0.4c-0.2,0.1-0.5,0.1-0.9,0.1h-2
				v-6h0.5V2.7z M79.3,3.1v2.5h1.5c0.3,0,0.5,0,0.7-0.1c0.2-0.1,0.3-0.2,0.5-0.3c0.1-0.1,0.2-0.3,0.3-0.4c0.1-0.2,0.1-0.3,0.1-0.5
				c0-0.2,0-0.3-0.1-0.5c-0.1-0.2-0.1-0.3-0.3-0.4c-0.1-0.1-0.3-0.2-0.5-0.3c-0.2-0.1-0.4-0.1-0.7-0.1L79.3,3.1L79.3,3.1z M84.3,6.1
				h-0.5v-6h0.5L84.3,6.1z"/>
			<path id="path30-3" class="st1" d="M85.9,6.1v-6h1.8c0.3,0,0.6,0,0.8,0.1c0.2,0.1,0.4,0.2,0.6,0.3c0.2,0.1,0.3,0.3,0.4,0.5
				c0.1,0.2,0.1,0.4,0.1,0.7c0,0.2,0,0.3-0.1,0.4c0,0.1-0.1,0.3-0.2,0.4c-0.1,0.1-0.2,0.2-0.3,0.3C89,2.8,88.8,2.9,88.7,3
				c0.2,0,0.3,0.1,0.5,0.2c0.1,0.1,0.3,0.2,0.4,0.3s0.2,0.3,0.2,0.4c0.1,0.2,0.1,0.3,0.1,0.5c0,0.3,0,0.5-0.1,0.7
				c-0.1,0.2-0.2,0.4-0.4,0.5c-0.2,0.1-0.4,0.3-0.6,0.3c-0.2,0.1-0.5,0.1-0.8,0.1L85.9,6.1L85.9,6.1z M86.4,2.8h1.4
				c0.4,0,0.8-0.1,1-0.3C89,2.3,89.1,2,89.1,1.6c0-0.4-0.1-0.7-0.4-0.9c-0.2-0.2-0.6-0.3-1.1-0.3h-1.3V2.8z M86.4,3.2v2.5h1.5
				c0.2,0,0.4,0,0.6-0.1c0.2-0.1,0.3-0.1,0.4-0.2c0.1-0.1,0.2-0.2,0.3-0.4c0.1-0.2,0.1-0.3,0.1-0.5c0-0.2,0-0.3-0.1-0.5
				c-0.1-0.1-0.1-0.3-0.3-0.4c-0.1-0.1-0.3-0.2-0.4-0.3c-0.2-0.1-0.4-0.1-0.6-0.1L86.4,3.2L86.4,3.2z"/>
			<path id="path32-5" class="st1" d="M95.5,6.1H95V3.2h-3.4v2.9h-0.5v-6h0.5v2.7H95V0.1h0.5V6.1z"/>
			<path id="path34" class="st1" d="M101.5,3.4c0,0.4-0.1,0.8-0.2,1.1s-0.3,0.6-0.5,0.9s-0.4,0.4-0.7,0.6s-0.6,0.2-1,0.2
				c-0.4,0-0.7-0.1-1-0.2c-0.3-0.1-0.5-0.3-0.7-0.6c-0.2-0.2-0.4-0.5-0.5-0.9c-0.1-0.3-0.2-0.7-0.2-1.1V2.8c0-0.4,0.1-0.8,0.2-1.1
				c0.1-0.3,0.3-0.6,0.5-0.9c0.2-0.2,0.4-0.4,0.7-0.6c0.3-0.1,0.6-0.2,1-0.2c0.4,0,0.7,0.1,1,0.2s0.5,0.3,0.7,0.6
				c0.2,0.2,0.4,0.5,0.5,0.9c0.1,0.3,0.2,0.7,0.2,1.1V3.4z M101,2.8c0-0.4,0-0.7-0.1-1c-0.1-0.3-0.2-0.5-0.4-0.7
				c-0.2-0.2-0.3-0.4-0.6-0.5c-0.2-0.1-0.5-0.2-0.8-0.2c-0.3,0-0.5,0.1-0.8,0.2c-0.2,0.1-0.4,0.3-0.6,0.5s-0.3,0.4-0.4,0.7
				s-0.1,0.6-0.1,1v0.7c0,0.4,0,0.7,0.1,1c0.1,0.3,0.2,0.5,0.4,0.7c0.2,0.2,0.4,0.4,0.6,0.5c0.2,0.1,0.5,0.2,0.8,0.2
				c0.3,0,0.6-0.1,0.8-0.2c0.2-0.1,0.4-0.3,0.6-0.5c0.2-0.2,0.3-0.4,0.4-0.7c0.1-0.3,0.1-0.6,0.1-1L101,2.8L101,2.8z"/>
			<path id="path36-8" class="st1" d="M103.4,0.1l2.2,5.3l2.2-5.3h0.7v6h-0.5V3.5l0-2.7l-2.2,5.3h-0.4l-2.2-5.3l0,2.7v2.6h-0.5v-6
				H103.4z"/>
		</g>
		<g id="g62">
			<path id="path40" class="st1" d="M8.8,16.2c0,0.8-0.1,1.5-0.3,2.2C8.3,19,8,19.6,7.6,20c-0.4,0.5-0.8,0.8-1.4,1
				c-0.5,0.2-1.1,0.4-1.8,0.4c-0.6,0-1.2-0.1-1.8-0.4c-0.5-0.2-1-0.6-1.4-1c-0.4-0.5-0.7-1-0.9-1.6C0.1,17.7,0,17,0,16.2v-0.7
				c0-0.8,0.1-1.5,0.3-2.2c0.2-0.7,0.5-1.2,0.9-1.7c0.4-0.5,0.8-0.8,1.4-1c0.5-0.2,1.1-0.4,1.8-0.4c0.7,0,1.3,0.1,1.8,0.4
				c0.5,0.2,1,0.6,1.4,1c0.4,0.5,0.7,1,0.9,1.7c0.2,0.6,0.3,1.4,0.3,2.2L8.8,16.2L8.8,16.2z M7.3,15.5c0-0.6-0.1-1.2-0.2-1.7
				c-0.1-0.5-0.3-0.9-0.6-1.3c-0.3-0.3-0.6-0.6-0.9-0.8c-0.4-0.2-0.8-0.3-1.2-0.3c-0.4,0-0.8,0.1-1.2,0.3c-0.4,0.2-0.7,0.4-0.9,0.8
				c-0.3,0.3-0.5,0.8-0.6,1.3c-0.1,0.5-0.2,1.1-0.2,1.7v0.7c0,0.7,0.1,1.2,0.2,1.7c0.1,0.5,0.3,0.9,0.6,1.3c0.3,0.3,0.6,0.6,0.9,0.8
				c0.4,0.2,0.8,0.3,1.2,0.3c0.5,0,0.9-0.1,1.2-0.3c0.4-0.2,0.7-0.4,0.9-0.8c0.3-0.3,0.4-0.8,0.6-1.3c0.1-0.5,0.2-1.1,0.2-1.7
				L7.3,15.5z"/>
			<path id="path42-8" class="st1" d="M17.6,11.6h-5.3v3.3h2.6c0.6,0,1.1,0.1,1.6,0.2c0.5,0.2,0.8,0.4,1.2,0.6
				c0.3,0.3,0.5,0.6,0.7,1c0.2,0.4,0.2,0.8,0.2,1.3c0,0.5-0.1,0.9-0.2,1.3c-0.2,0.4-0.4,0.7-0.7,1c-0.3,0.3-0.7,0.5-1.2,0.7
				c-0.5,0.2-1,0.2-1.6,0.2h-4.1V10.4h6.7V11.6z M12.3,16v4.1h2.6c0.4,0,0.7-0.1,1-0.2c0.3-0.1,0.5-0.3,0.7-0.5
				c0.2-0.2,0.3-0.4,0.4-0.7c0.1-0.3,0.1-0.5,0.1-0.8s0-0.5-0.1-0.8c-0.1-0.2-0.2-0.5-0.4-0.6c-0.2-0.2-0.4-0.3-0.7-0.4
				s-0.6-0.2-1-0.2L12.3,16L12.3,16z"/>
			<path id="path44-2" class="st1" d="M22,17v4.3h-1.4V10.4h4c0.6,0,1.2,0.1,1.6,0.2c0.5,0.2,0.9,0.4,1.2,0.7
				c0.3,0.3,0.6,0.6,0.7,1.1c0.2,0.4,0.3,0.9,0.3,1.3c0,0.5-0.1,1-0.3,1.4c-0.2,0.4-0.4,0.8-0.7,1c-0.3,0.3-0.7,0.5-1.2,0.6
				s-1,0.2-1.6,0.2L22,17z M22,15.8h2.6c0.4,0,0.8-0.1,1.1-0.2c0.3-0.1,0.5-0.3,0.7-0.4c0.2-0.2,0.3-0.4,0.4-0.7
				c0.1-0.3,0.1-0.5,0.1-0.8c0-0.3,0-0.6-0.1-0.8c-0.1-0.3-0.2-0.5-0.4-0.7c-0.2-0.2-0.4-0.4-0.7-0.5s-0.7-0.2-1.1-0.2H22V15.8z"/>
			<path id="path46" class="st1" d="M35.2,18.4h-4.6l-1,2.8h-1.5l4.2-10.9h1.3l4.2,10.9h-1.5L35.2,18.4z M31.1,17.3h3.7L33,12.2
				L31.1,17.3z"/>
			<path id="path48-2" class="st1" d="M42.5,15.1c0.4,0,0.8,0,1.1-0.1c0.3-0.1,0.5-0.2,0.7-0.4c0.2-0.2,0.3-0.4,0.4-0.6
				s0.1-0.5,0.1-0.7c0-0.3,0-0.5-0.1-0.7c-0.1-0.2-0.2-0.4-0.4-0.6s-0.4-0.3-0.7-0.4c-0.3-0.1-0.7-0.1-1.1-0.1c-0.3,0-0.6,0-0.9,0.1
				c-0.3,0.1-0.5,0.2-0.7,0.4c-0.2,0.2-0.4,0.4-0.5,0.6c-0.1,0.2-0.2,0.5-0.2,0.7h-1.4c0-0.5,0.1-0.9,0.3-1.3
				c0.2-0.4,0.5-0.7,0.8-0.9c0.3-0.3,0.7-0.5,1.2-0.6c0.4-0.1,0.9-0.2,1.4-0.2c0.6,0,1.1,0.1,1.6,0.2s0.9,0.3,1.2,0.6
				c0.3,0.3,0.6,0.6,0.8,1c0.2,0.4,0.3,0.8,0.3,1.3c0,0.5-0.2,1-0.5,1.4c-0.3,0.4-0.7,0.7-1.3,1c0.6,0.2,1.1,0.5,1.4,1
				c0.3,0.4,0.5,1,0.5,1.6c0,0.5-0.1,1-0.3,1.4c-0.2,0.4-0.5,0.7-0.8,1s-0.8,0.5-1.3,0.6c-0.5,0.1-1,0.2-1.6,0.2
				c-0.5,0-0.9-0.1-1.4-0.2c-0.5-0.1-0.9-0.3-1.2-0.6c-0.4-0.3-0.7-0.6-0.9-1c-0.2-0.4-0.3-0.9-0.3-1.4H40c0,0.3,0.1,0.5,0.2,0.8
				c0.1,0.2,0.3,0.5,0.5,0.6c0.2,0.2,0.5,0.3,0.8,0.4c0.3,0.1,0.6,0.2,1,0.2c0.4,0,0.8,0,1.1-0.1s0.6-0.2,0.8-0.4
				c0.2-0.2,0.4-0.4,0.5-0.6c0.1-0.2,0.2-0.5,0.2-0.8c0-0.7-0.2-1.2-0.6-1.5c-0.4-0.3-1-0.5-1.8-0.5h-1.2v-1.2L42.5,15.1L42.5,15.1z
				"/>
			<path id="path50-6" class="st1" d="M56.7,16.2c0,0.8-0.1,1.5-0.3,2.2s-0.5,1.2-0.9,1.6c-0.4,0.5-0.8,0.8-1.4,1
				c-0.5,0.2-1.1,0.4-1.8,0.4c-0.6,0-1.2-0.1-1.8-0.4c-0.5-0.2-1-0.6-1.4-1c-0.4-0.5-0.7-1-0.9-1.6c-0.2-0.6-0.3-1.4-0.3-2.2v-0.7
				c0-0.8,0.1-1.5,0.3-2.2c0.2-0.7,0.5-1.2,0.9-1.7c0.4-0.5,0.8-0.8,1.4-1c0.5-0.2,1.1-0.4,1.8-0.4c0.7,0,1.3,0.1,1.8,0.4
				c0.5,0.2,1,0.6,1.4,1c0.4,0.5,0.7,1,0.9,1.7c0.2,0.6,0.3,1.4,0.3,2.2L56.7,16.2z M55.3,15.5c0-0.6-0.1-1.2-0.2-1.7
				c-0.1-0.5-0.3-0.9-0.6-1.3c-0.3-0.3-0.6-0.6-0.9-0.8s-0.8-0.3-1.2-0.3c-0.4,0-0.8,0.1-1.2,0.3c-0.4,0.2-0.7,0.4-0.9,0.8
				c-0.3,0.3-0.5,0.8-0.6,1.3c-0.1,0.5-0.2,1.1-0.2,1.7v0.7c0,0.7,0.1,1.2,0.2,1.7c0.1,0.5,0.3,0.9,0.6,1.3c0.3,0.3,0.6,0.6,0.9,0.8
				c0.4,0.2,0.8,0.3,1.2,0.3c0.5,0,0.9-0.1,1.2-0.3c0.4-0.2,0.7-0.4,0.9-0.8c0.3-0.3,0.4-0.8,0.6-1.3c0.1-0.5,0.2-1.1,0.2-1.7
				C55.3,16.2,55.3,15.5,55.3,15.5z"/>
			<path id="path52" class="st1" d="M58.8,21.3V10.4h3.6c0.6,0,1.1,0.1,1.5,0.2c0.4,0.1,0.8,0.3,1.1,0.5c0.3,0.2,0.5,0.5,0.7,0.9
				c0.2,0.4,0.2,0.8,0.2,1.3c0,0.5-0.1,1-0.4,1.3c-0.3,0.4-0.7,0.7-1.2,0.9c0.3,0.1,0.6,0.2,0.8,0.4c0.2,0.2,0.4,0.4,0.6,0.6
				s0.3,0.5,0.4,0.8c0.1,0.3,0.1,0.6,0.1,0.9c0,0.5-0.1,1-0.3,1.4c-0.2,0.4-0.4,0.7-0.7,1c-0.3,0.3-0.7,0.5-1.1,0.6
				c-0.4,0.1-0.9,0.2-1.5,0.2L58.8,21.3L58.8,21.3z M60.3,15h2.2c0.3,0,0.6,0,0.8-0.1c0.3-0.1,0.5-0.2,0.7-0.3
				c0.2-0.1,0.3-0.3,0.4-0.6c0.1-0.2,0.1-0.5,0.1-0.7c0-0.6-0.2-1-0.5-1.3c-0.3-0.3-0.9-0.4-1.6-0.4h-2.1L60.3,15z M60.3,16.2v3.9
				h2.4c0.3,0,0.6,0,0.9-0.1c0.3-0.1,0.5-0.2,0.7-0.4c0.2-0.2,0.3-0.4,0.4-0.6c0.1-0.2,0.1-0.5,0.1-0.8c0-0.3,0-0.6-0.1-0.8
				c-0.1-0.2-0.2-0.5-0.4-0.6c-0.2-0.2-0.4-0.3-0.7-0.4c-0.3-0.1-0.6-0.1-0.9-0.1L60.3,16.2L60.3,16.2z"/>
			<path id="path54" class="st1" d="M74.4,18.4h-4.6l-1,2.8h-1.5l4.2-10.9h1.3l4.2,10.9h-1.5L74.4,18.4z M70.3,17.3H74l-1.9-5.1
				L70.3,17.3z"/>
			<path id="path56" class="st1" d="M86.7,21.3h-1.4v-5h-5.5v5h-1.4V10.4h1.4v4.7h5.5v-4.7h1.4L86.7,21.3z"/>
			<path id="path58" class="st1" d="M96.2,10.4h1.4v10.9h-1.4v-8.4l-5.4,8.4h-1.4V10.4h1.4v8.4L96.2,10.4z"/>
			<path id="path60" class="st1" d="M107.1,10.4h1.4v10.9h-1.4v-8.4l-5.4,8.4h-1.4V10.4h1.4v8.4L107.1,10.4z"/>
		</g>
	</g>
</g>
</svg>
