<?xml version="1.0" encoding="utf-8"?>
<!-- Generator: Adobe Illustrator 22.1.0, SVG Export Plug-In . SVG Version: 6.00 Build 0)  -->
<svg version="1.1" id="Слой_1" xmlns="http://www.w3.org/2000/svg" xmlns:xlink="http://www.w3.org/1999/xlink" x="0px" y="0px"
	 viewBox="0 0 100 100" style="enable-background:new 0 0 100 100;" xml:space="preserve">
<style type="text/css">
	.st0{fill:#FFFFFF;}
</style>
<g>
	<path class="st0" d="M68.6,10.2v12.6l-11.3-2.5h0l-7.2,0v0l-7.2,0h0l-11.3,2.5V10.2L12.8,28.9L0.9,40.7l0,0l9.2,9.2l13.5,13.5
		l9.3,9.3L50,89.8v0l17.1-17.1l9.3-9.3l13.4-13.5l9.2-9.2L87.2,28.9L68.6,10.2z M64.3,71.8L64.3,71.8L50,66.7v0l-14.3,5.2l0,0L26,62
		l9.6-5.9L50,53v0l14.4,3.1l9.6,5.9L64.3,71.8z M95.3,40.7l-7.5,7.6h0l-9.5-7.5l-9.6-3.9l-7.9,3.9L50,46v0l-10.7-5.2l-7.9-3.9
		l-9.6,3.9l-9.5,7.5l0,0l-7.5-7.6l0,0L17.3,28l11.6-11.6l0,9.9l0.1,0l14.7-3.6l0,0H50v0h6.4l14.7,3.6l0.1,0l0-9.9l11.6,11.6
		L95.3,40.7L95.3,40.7z"/>
</g>
</svg>
