<?xml version="1.0" encoding="utf-8"?>
<!-- Generator: Adobe Illustrator 22.1.0, SVG Export Plug-In . SVG Version: 6.00 Build 0)  -->
<svg fill="#fff" version="1.1" id="Capa_1" xmlns="http://www.w3.org/2000/svg" xmlns:xlink="http://www.w3.org/1999/xlink" x="0px" y="0px"
	 viewBox="0 0 512 512" style="enable-background:new 0 0 512 512;" xml:space="preserve">
<g>
	<g>
		<path d="M497,226h-46c-8.3,0-15,6.7-15,15s6.7,15,15,15h46c8.3,0,15-6.7,15-15S505.3,226,497,226z"/>
	</g>
</g>
<g>
	<g>
		<path d="M476.6,320.4l-30-30c-5.9-5.9-15.4-5.9-21.2,0s-5.9,15.4,0,21.2l30,30c5.9,5.9,15.4,5.9,21.2,0S482.5,326.3,476.6,320.4z"
			/>
	</g>
</g>
<g>
	<g>
		<path d="M476.6,140.4c-5.9-5.9-15.4-5.9-21.2,0l-30,30c-5.9,5.9-5.9,15.4,0,21.2s15.4,5.9,21.2,0l30-30
			C482.5,155.7,482.5,146.3,476.6,140.4z"/>
	</g>
</g>
<g>
	<g>
		<path d="M106,136c-19.5,0-36,12.6-42.2,30H61c-33.1,0-61,26.9-61,60s27.9,60,61,60h2.8c6.2,17.4,22.7,30,42.2,30h75V136H106z"/>
	</g>
</g>
<g>
	<g>
		<path d="M361,46c-16.6,0-30,13.4-30,30v300c0,16.6,13.4,30,30,30s30-13.4,30-30V76C391,59.4,377.6,46,361,46z"/>
	</g>
</g>
<g>
	<g>
		<path d="M106,346c-5.1,0-10.2-0.5-15-1.5V421c0,24.8,20.2,45,45,45s45-20.2,45-45v-75H106z"/>
	</g>
</g>
<g>
	<g>
		<path d="M287.8,98c-20.9,20.9-47.9,33.2-76.8,36.6v182.9c29,3.3,55.9,15.6,76.8,36.6l13.2,13.2V84.8L287.8,98z"/>
	</g>
</g>
</svg>
