<?xml version="1.0" encoding="utf-8"?>
<!-- Generator: Adobe Illustrator 22.1.0, SVG Export Plug-In . SVG Version: 6.00 Build 0)  -->
<svg version="1.1" id="Слой_1" xmlns="http://www.w3.org/2000/svg" xmlns:xlink="http://www.w3.org/1999/xlink" x="0px" y="0px"
	 viewBox="0 0 49 49" style="enable-background:new 0 0 49 49;" xml:space="preserve">
<style type="text/css">
	.st0{fill:#E4635D;}
	.st1{opacity:0.3;}
	.st2{fill:#303838;}
	.st3{fill:#FFFFFF;}
</style>
<g>
	<circle class="st0" cx="24.5" cy="24.5" r="24.5"/>
	<g class="st1">
		<path class="st2" d="M7.3,25.7c0-2.4,0.9-4.5,2.6-6.3s3.8-2.6,6.3-2.6s4.5,0.9,6.3,2.6s2.6,3.8,2.6,6.3s-0.9,4.5-2.6,6.3
			s-3.8,2.6-6.3,2.6c-2,0-3.8-0.6-5.3-1.8v4.9H7.3V25.7z M16.2,31c1.5,0,2.7-0.5,3.7-1.6c1-1,1.6-2.3,1.6-3.7c0-1.5-0.5-2.7-1.6-3.7
			c-1-1-2.3-1.6-3.7-1.6s-2.7,0.5-3.7,1.6s-1.6,2.3-1.6,3.7s0.5,2.7,1.6,3.7S14.7,31,16.2,31z"/>
		<path class="st2" d="M44.5,29.5c-1-1-1.6-2.3-1.6-3.7v-8.8h0h-3.5h0v8.8c0,1.5-0.5,2.7-1.6,3.7c-1,1-2.3,1.6-3.7,1.6
			s-2.7-0.5-3.7-1.6c-1-1-1.6-2.3-1.6-3.7v-8.8h-3.5v8.8c0,2.4,0.9,4.5,2.6,6.3s3.8,2.6,6.3,2.6s4.5-0.9,6.3-2.6
			c0.3-0.3,0.6-0.6,0.8-1c0.3,0.3,0.5,0.6,0.8,1c0.9,0.9,1.9,1.5,2.9,2v-4.1C44.8,29.7,44.7,29.6,44.5,29.5z"/>
	</g>
	<g>
		<path class="st3" d="M6.6,24.7c0-2.4,0.9-4.5,2.6-6.3s3.8-2.6,6.3-2.6s4.5,0.9,6.3,2.6c1.7,1.7,2.6,3.8,2.6,6.3s-0.9,4.5-2.6,6.3
			s-3.8,2.6-6.3,2.6c-2,0-3.8-0.6-5.3-1.8v4.9H6.6V24.7z M15.5,30c1.5,0,2.7-0.5,3.7-1.6c1-1,1.6-2.3,1.6-3.7c0-1.5-0.5-2.7-1.6-3.7
			c-1-1-2.3-1.6-3.7-1.6S12.7,20,11.7,21c-1,1-1.6,2.3-1.6,3.7s0.5,2.7,1.6,3.7S14,30,15.5,30z"/>
		<path class="st3" d="M43.8,28.5c-1-1-1.6-2.3-1.6-3.7v-8.8h0h-3.5h0v8.8c0,1.5-0.5,2.7-1.6,3.7c-1,1-2.3,1.6-3.7,1.6
			c-1.5,0-2.7-0.5-3.7-1.6c-1-1-1.6-2.3-1.6-3.7v-8.8h-3.5v8.8c0,2.4,0.9,4.5,2.6,6.3s3.8,2.6,6.3,2.6s4.5-0.9,6.3-2.6
			c0.3-0.3,0.6-0.6,0.8-1c0.3,0.3,0.5,0.6,0.8,1c0.9,0.9,1.9,1.5,2.9,2v-4.1C44.1,28.7,43.9,28.6,43.8,28.5z"/>
	</g>
</g>
</svg>
