<?xml version="1.0" encoding="utf-8"?>
<!-- Generator: Adobe Illustrator 22.1.0, SVG Export Plug-In . SVG Version: 6.00 Build 0)  -->
<svg version="1.1" id="Слой_1" xmlns="http://www.w3.org/2000/svg" xmlns:xlink="http://www.w3.org/1999/xlink" x="0px" y="0px"
	 viewBox="0 0 23 23" style="enable-background:new 0 0 23 23;" xml:space="preserve">
<style type="text/css">
	.st0{fill:#FFFFFF;}
</style>
<g>
	<path class="st0" d="M23,21.2c0,0.5-0.2,0.9-0.5,1.2c-0.4,0.4-0.8,0.5-1.2,0.5c-0.5,0-0.9-0.2-1.2-0.5l-4.7-4.7
		c-1.6,1.1-3.5,1.7-5.5,1.7c-1.3,0-2.6-0.3-3.8-0.8c-1.2-0.5-2.2-1.2-3.1-2.1c-0.9-0.9-1.6-1.9-2.1-3.1C0.3,12.3,0,11,0,9.7
		c0-1.3,0.3-2.6,0.8-3.8C1.3,4.7,2,3.7,2.8,2.8s1.9-1.6,3.1-2.1C7.2,0.3,8.4,0,9.7,0c1.3,0,2.6,0.3,3.8,0.8c1.2,0.5,2.2,1.2,3.1,2.1
		c0.9,0.9,1.6,1.9,2.1,3.1c0.5,1.2,0.8,2.5,0.8,3.8c0,2-0.6,3.9-1.7,5.5l4.7,4.7C22.8,20.3,23,20.7,23,21.2z M14.1,14.1
		c1.2-1.2,1.8-2.7,1.8-4.4c0-1.7-0.6-3.2-1.8-4.4c-1.2-1.2-2.7-1.8-4.4-1.8C8,3.5,6.6,4.1,5.4,5.4C4.1,6.6,3.5,8,3.5,9.7
		c0,1.7,0.6,3.2,1.8,4.4s2.7,1.8,4.4,1.8C11.4,15.9,12.9,15.3,14.1,14.1z"/>
</g>
</svg>
