<?xml version="1.0" encoding="utf-8"?>
<!-- Generator: Adobe Illustrator 22.1.0, SVG Export Plug-In . SVG Version: 6.00 Build 0)  -->
<svg version="1.1" id="Слой_1" xmlns="http://www.w3.org/2000/svg" xmlns:xlink="http://www.w3.org/1999/xlink" x="0px" y="0px"
	 viewBox="0 0 49 49" style="enable-background:new 0 0 49 49;" xml:space="preserve">
<style type="text/css">
	.st0{fill:#54C3ED;}
	.st1{opacity:0.3;}
	.st2{fill:#303838;}
	.st3{fill:#FFFFFF;}
</style>
<g>
	<circle class="st0" cx="24.5" cy="24.5" r="24.5"/>
	<g class="st1">
		<path class="st2" d="M20.6,27.7h3.7c-0.3,1.7-1.1,3.2-2.4,4.5c-1.7,1.7-3.8,2.6-6.3,2.6s-4.5-0.9-6.3-2.6
			c-1.7-1.7-2.6-3.8-2.6-6.3s0.9-4.5,2.6-6.3c1.7-1.7,3.8-2.6,6.3-2.6s4.5,0.9,6.3,2.6c1.3,1.3,2.1,2.8,2.4,4.5h-3.7
			c-0.3-0.7-0.7-1.4-1.3-2c-1-1-2.3-1.6-3.7-1.6s-2.7,0.5-3.7,1.6c-1,1-1.6,2.3-1.6,3.7s0.5,2.7,1.6,3.7c1,1,2.3,1.6,3.7,1.6
			c1.5,0,2.7-0.5,3.7-1.6C19.9,29.1,20.3,28.4,20.6,27.7z"/>
		<path class="st2" d="M42.3,33c0,2.4-0.9,4.5-2.6,6.3c-1.7,1.7-3.8,2.6-6.3,2.6v-3.5c1.5,0,2.7-0.5,3.7-1.6c1-1,1.6-2.3,1.6-3.7
			c-1.5,1.2-3.3,1.8-5.3,1.8c-2.4,0-4.5-0.9-6.3-2.6c-1.7-1.7-2.6-3.8-2.6-6.3v-8.8h3.5v8.8c0,1.5,0.5,2.7,1.6,3.7
			c1,1,2.3,1.6,3.7,1.6c1.5,0,2.7-0.5,3.7-1.6c1-1,1.6-2.3,1.6-3.7v-8.8h3.5L42.3,33L42.3,33z"/>
	</g>
	<g>
		<path class="st3" d="M19.8,26.7h3.7c-0.3,1.7-1.1,3.2-2.4,4.5c-1.7,1.7-3.8,2.6-6.3,2.6s-4.5-0.9-6.3-2.6S6,27.4,6,25
			s0.9-4.5,2.6-6.3s3.8-2.6,6.3-2.6s4.5,0.9,6.3,2.6c1.3,1.3,2.1,2.8,2.4,4.5h-3.7c-0.3-0.7-0.7-1.4-1.3-2c-1-1-2.3-1.6-3.7-1.6
			s-2.7,0.5-3.7,1.6c-1,1-1.6,2.3-1.6,3.7s0.5,2.7,1.6,3.7c1,1,2.3,1.6,3.7,1.6c1.5,0,2.7-0.5,3.7-1.6
			C19.2,28.1,19.6,27.5,19.8,26.7z"/>
		<path class="st3" d="M41.6,32c0,2.4-0.9,4.5-2.6,6.3c-1.7,1.7-3.8,2.6-6.3,2.6v-3.5c1.5,0,2.7-0.5,3.7-1.6c1-1,1.6-2.3,1.6-3.7
			c-1.5,1.2-3.3,1.8-5.3,1.8c-2.4,0-4.5-0.9-6.3-2.6c-1.7-1.7-2.6-3.8-2.6-6.3v-8.8h3.5V25c0,1.5,0.5,2.7,1.6,3.7
			c1,1,2.3,1.6,3.7,1.6c1.5,0,2.7-0.5,3.7-1.6c1-1,1.6-2.3,1.6-3.7v-8.8h3.5L41.6,32L41.6,32z"/>
	</g>
</g>
</svg>
