<?xml version="1.0" encoding="utf-8"?>
<!-- Generator: Adobe Illustrator 22.1.0, SVG Export Plug-In . SVG Version: 6.00 Build 0)  -->
<svg fill="#fff" version="1.1" id="Capa_1" xmlns="http://www.w3.org/2000/svg" xmlns:xlink="http://www.w3.org/1999/xlink" x="0px" y="0px"
	 viewBox="0 0 79.5 79.5" style="enable-background:new 0 0 79.5 79.5;" xml:space="preserve">
<g>
	<path d="M77.6,12.8l-9.9-10c-1.4-1.4-4.1-0.9-6.1,1.1L52.6,13L40.1,0H1.1v79.5h61.3V33l14.2-14.1
		C78.5,16.9,79,14.2,77.6,12.8z M41.1,10.4l6.9,7.2l-3.8,3.8h-3.1V10.4z M42.5,48.9l-13.7,5.6l-2.9-3l5.6-13.7L42.5,48.9z
		 M55.9,73.1H7.6V6.4h28.7v19.7h3.1l-3.7,3.7H14.5V33h18l-2.9,2.9l-3,7.3H14.5v3.2h10.8l-4.2,10.2h-6.7v3.2h34.6v-3.2H30.4l14-5.7
		l4.5-4.5h0.1v-0.1l6.9-6.8L55.9,73.1L55.9,73.1L55.9,73.1z"/>
</g>
</svg>
