<?xml version="1.0" encoding="utf-8"?>
<!-- Generator: Adobe Illustrator 22.1.0, SVG Export Plug-In . SVG Version: 6.00 Build 0)  -->
<svg fill="#cacaca" version="1.1" id="Capa_1" xmlns="http://www.w3.org/2000/svg" xmlns:xlink="http://www.w3.org/1999/xlink" x="0px" y="0px"
	 viewBox="0 0 612 612" style="enable-background:new 0 0 612 612;" xml:space="preserve">
<g>
	<g>
		<path d="M601.4,535.8L433.7,368.4c1.5-2.3,2.6-6,3.8-10.9c17.7-29.8,28.7-62.2,32.1-96.5c0.8-7.9,1.1-16.2,1.1-24.1
			c0-26-4.3-52.1-13.2-77.7c-11.5-33.2-29.9-62.8-55.4-88.2C356.6,25.8,296.8,2.3,235.4,2.3c-60.7,0-120.8,23.6-166.3,68.6
			c-30.3,30-50.4,65.6-61.1,105.9c-10.8,40.8-10.6,80.7,0,121c10.6,40.3,30.7,75.7,61.1,105.9c45.4,45.1,105.6,68.6,166.3,68.6
			c47.1,0,90-13.6,129.7-38.5l6-3.8l168.5,168.2c6.4,6.4,13.2,10.2,19.6,10.9c1.5,0.4,2.6,0.4,3.8,0.4c4.5-0.3,8.7-1.5,12.1-3.4
			c4.6-2.6,9.4-6.4,14.7-11.7l7.5-7.5c5.3-5.3,9.1-10.2,11.7-14.7c1.9-3.4,3-7.9,3-13.6v-3C612,549.3,608,542.4,601.4,535.8z
			 M422.4,287.3c-8.8,33.1-25.6,62.2-50.5,87.1C335.6,410.6,287,431,235.4,431c-50.9,0-99.2-20.7-136.9-56.6
			c-74-70.5-73.7-202.2,0-273.3c37.2-35.9,85.6-56.9,136.9-56.9c53.9,0,98.9,19.1,136.5,56.9c24.6,24.8,41.8,53.5,50.5,86.7
			C431,221,431.2,254.1,422.4,287.3z"/>
		<polygon points="258.4,138.4 212.7,138.4 212.7,214.6 136.6,214.6 136.6,260.2 212.7,260.2 212.7,336.7 258.4,336.7 258.4,260.2 
			334.9,260.2 334.9,214.6 258.4,214.6 		"/>
	</g>
</g>
</svg>
